<?xml version="1.0" encoding="utf-8"?>
<!-- Generator: Adobe Illustrator 24.0.2, SVG Export Plug-In . SVG Version: 6.00 Build 0)  -->
<svg version="1.1" id="Layer_1" xmlns="http://www.w3.org/2000/svg" xmlns:xlink="http://www.w3.org/1999/xlink" x="0px" y="0px"
	 viewBox="0 0 30 30" style="enable-background:new 0 0 30 30;" xml:space="preserve">
<style type="text/css">
	.st0{fill:#FFFFFF;}
	.st1{fill:#7F2EFF;}
</style>
<g>
	<g>
		<path class="st0" d="M25.7,1.3H5.6c-0.6,0-1,0.5-1,1s0.5,1,1,1l21.1,2.3V2.1C26.6,1.5,26.3,1.3,25.7,1.3z"/>
	</g>
	<g>
		<path class="st1" d="M24.7,0H5.3c-1.1,0-2,0.9-2,2v26c0,1.1,0.9,2,2,2h19.4c1.1,0,2-0.9,2-2V4.4c0-0.6-0.5-1-1-1H5.6
			c-0.5,0-1-0.4-1.1-0.9c0-0.7,0.5-1.2,1.1-1.2h20.1c0.5,0,0.9,0.4,1,0.8l0,0V2C26.7,0.9,25.8,0,24.7,0z"/>
	</g>
	<g>
		<g>
			<path class="st0" d="M14.9,21.8l-5.5-5c-0.5-0.5-0.6-1.3-0.1-1.8s1.3-0.6,1.8-0.1l3.6,3.2l5.4-6.1c0.5-0.5,1.3-0.6,1.8-0.1
				s0.6,1.3,0.1,1.8L14.9,21.8z"/>
			<path class="st1" d="M14.9,22.1L9.2,17c-0.3-0.3-0.5-0.7-0.5-1.1s0.1-0.8,0.4-1.1c0.3-0.3,0.7-0.5,1.1-0.5c0.4,0,0.8,0.1,1.1,0.4
				l3.4,3.1l5.3-5.9c0.3-0.3,0.7-0.5,1.1-0.5s0.8,0.1,1.1,0.4c0.3,0.3,0.5,0.7,0.5,1.1c0,0.4-0.1,0.8-0.4,1.1L14.9,22.1z M10.2,14.8
				L10.2,14.8c-0.3,0-0.6,0.1-0.8,0.3s-0.3,0.5-0.3,0.8s0.1,0.5,0.3,0.7l5.3,4.8l7-7.9c0.2-0.2,0.3-0.5,0.3-0.8s-0.1-0.5-0.3-0.7
				c-0.2-0.2-0.5-0.3-0.8-0.3s-0.5,0.1-0.7,0.3l-5.6,6.3l-3.8-3.4C10.7,14.9,10.5,14.8,10.2,14.8z"/>
		</g>
	</g>
</g>
</svg>
