<?xml version="1.0" encoding="utf-8"?>
<!-- Generator: Adobe Illustrator 24.0.2, SVG Export Plug-In . SVG Version: 6.00 Build 0)  -->
<svg version="1.1" id="Layer_1" xmlns="http://www.w3.org/2000/svg" xmlns:xlink="http://www.w3.org/1999/xlink" x="0px" y="0px"
	 viewBox="0 0 1125 2436" style="enable-background:new 0 0 1125 2436;" xml:space="preserve">
<style type="text/css">
	.st0{opacity:0.16;fill:url(#SVGID_1_);}
	.st1{opacity:0.16;fill:url(#SVGID_2_);}
	.st2{opacity:0;fill:none;stroke:#D9CAFF;stroke-miterlimit:10;}
	.st3{fill:#D9CAFF;}
	.st4{fill:url(#SVGID_3_);}
</style>
<rect x="1" width="1121.8" height="2436"/>
<radialGradient id="SVGID_1_" cx="1932.6792" cy="2840.8818" r="3111.124" gradientTransform="matrix(1.0398 0 0 2.2579 -22.5496 -2166.8965)" gradientUnits="userSpaceOnUse">
	<stop  offset="0" style="stop-color:#00FFFF"/>
	<stop  offset="1" style="stop-color:#FF00FF;stop-opacity:0.93"/>
</radialGradient>
<rect x="3.2" class="st0" width="1121.8" height="2436"/>
<rect x="1" width="1121.8" height="2436"/>
<radialGradient id="SVGID_2_" cx="1932.6792" cy="2840.8818" r="3111.124" gradientTransform="matrix(1.0398 0 0 2.2579 -22.5496 -2166.8965)" gradientUnits="userSpaceOnUse">
	<stop  offset="0" style="stop-color:#558FFF"/>
	<stop  offset="0.508" style="stop-color:#8337F9"/>
	<stop  offset="1" style="stop-color:#AA1EF4"/>
</radialGradient>
<rect x="3.2" class="st1" width="1121.8" height="2436"/>
<path class="st2" d="M426.5,832.5c-11.2,0-23.8,8.4-28,18.8l-263.6,642.6c-4.2,10.3-4.2,27.2,0,37.5l23.6,57.4
	c4.2,10.3,16.8,18.8,28,18.8h758.8c11.2,0,23.8-8.4,28-18.8l23.6-57.4c4.2-10.3,4.2-27.2,0-37.5L733.2,851.3
	c-4.2-10.3-16.8-18.8-28-18.8H426.5z"/>
<g>
	<path class="st3" d="M261.4,1492.3l-8.9,20.1h-15.9l39-88.4h15.9l39,88.4h-15.9l-8.9-20.1H261.4z M299.6,1478.5l-16.1-36.4
		l-16.1,36.4H299.6z"/>
	<path class="st3" d="M359.9,1476v36.4h-14.2v-67.3h14.2v12.3c2-4.1,5.1-7.4,9.2-9.7c4.1-2.4,8.5-3.5,13.2-3.5
		c10.6,0,17.8,4.4,21.6,13.2c6.7-8.8,15-13.2,24.9-13.2c7.6,0,13.7,2.3,18.4,7c4.7,4.6,7,11.3,7,20.1v41.2h-14.2v-36.9
		c0-12.4-5.1-18.6-15.4-18.6c-4.8,0-9,1.5-12.6,4.6c-3.6,3.1-5.5,7.6-5.6,13.5v37.4h-14.2v-36.9c0-6.4-1.1-11.1-3.4-14.1
		c-2.3-3-5.9-4.5-10.8-4.5c-4.9,0-9.1,1.6-12.8,4.9C361.8,1465,359.9,1469.7,359.9,1476z"/>
	<path class="st3" d="M541.7,1484.9h-52.7c0.3,4.9,2.6,8.8,6.7,11.8c4.1,3,8.9,4.5,14.2,4.5c8.4,0,14.8-2.7,19.2-8l8.1,8.9
		c-7.3,7.5-16.7,11.3-28.3,11.3c-9.4,0-17.5-3.1-24.1-9.4c-6.6-6.3-9.9-14.7-9.9-25.3s3.4-19,10.1-25.2c6.7-6.2,14.7-9.4,23.8-9.4
		c9.1,0,16.9,2.8,23.3,8.3c6.4,5.5,9.6,13.1,9.6,22.8V1484.9z M488.9,1473.8h38.6c0-5.6-1.8-10-5.3-13c-3.5-3-7.9-4.6-13.1-4.6
		c-5.2,0-9.8,1.6-14,4.7C491,1464.1,488.9,1468.4,488.9,1473.8z"/>
	<path class="st3" d="M579.2,1456.5v34.1c0,3.2,0.8,5.8,2.5,7.7c1.7,1.9,4,2.8,7.1,2.8s5.9-1.5,8.7-4.4l5.8,10
		c-5,4.5-10.5,6.7-16.5,6.7c-6,0-11.2-2.1-15.4-6.3c-4.3-4.2-6.4-9.8-6.4-16.9v-33.8h-8.5v-11.4h8.5V1424h14.2v21.1H597v11.4H579.2z
		"/>
	<path class="st3" d="M633.9,1476v36.4h-14.2v-93.7h14.2v38.7c2-4.1,5.1-7.4,9.2-9.7c4.1-2.4,8.5-3.5,13.2-3.5
		c7.6,0,13.7,2.3,18.4,7c4.7,4.6,7,11.3,7,20.1v41.2h-14.2v-36.9c0-12.4-5.1-18.6-15.4-18.6c-4.9,0-9.1,1.6-12.8,4.9
		C635.7,1465,633.9,1469.7,633.9,1476z"/>
	<path class="st3" d="M714.9,1539.2c-6.2,0-11.7-2.2-16.7-6.7l6.5-11.5c3,2.8,6,4.2,9.2,4.2c3.2,0,5.7-1.1,7.7-3.4
		c2-2.3,3-4.8,3-7.5c0-1.2-9.1-24.2-27.2-69.2h15.2l20.1,49.6l20.1-49.6h15.2l-32.6,79.9c-1.9,4.4-4.7,7.8-8.3,10.4
		C723.3,1537.9,719.3,1539.2,714.9,1539.2z"/>
	<path class="st3" d="M831.3,1492.3c0,6.4-2.3,11.5-7,15.4c-4.6,3.8-10.6,5.8-17.8,5.8c-4.9,0-10-0.9-15.2-2.7
		c-5.3-1.8-9.9-4.3-14-7.5l6.8-11c7.8,5.9,15.4,8.9,22.8,8.9c3.2,0,5.7-0.7,7.6-2.2c1.9-1.5,2.8-3.3,2.8-5.6c0-3.4-4.5-6.4-13.4-9.1
		c-0.7-0.3-1.2-0.4-1.5-0.5c-14-3.8-21-10.1-21-19c0-6.2,2.4-11.2,7.3-15c4.9-3.7,11.2-5.6,18.9-5.6c7.8,0,15.1,2.3,22,6.8
		l-5.3,10.5c-5.5-3.6-11.4-5.4-17.8-5.4c-3.4,0-6.1,0.6-8.2,1.8c-2.1,1.2-3.2,3.1-3.2,5.5c0,2.2,1.1,3.8,3.3,4.8
		c1.5,0.8,3.6,1.5,6.4,2.2c2.7,0.7,5.2,1.3,7.3,2c2.1,0.7,4.2,1.4,6.1,2.3c2,0.8,4.1,2,6.4,3.5
		C829,1481.1,831.3,1485.9,831.3,1492.3z"/>
	<path class="st3" d="M869.9,1456.5v34.1c0,3.2,0.8,5.8,2.5,7.7c1.7,1.9,4,2.8,7.1,2.8s5.9-1.5,8.7-4.4l5.8,10
		c-5,4.5-10.5,6.7-16.5,6.7c-6,0-11.2-2.1-15.4-6.3c-4.3-4.2-6.4-9.8-6.4-16.9v-33.8h-8.5v-11.4h8.5V1424h14.2v21.1h17.7v11.4H869.9
		z"/>
</g>
<radialGradient id="SVGID_3_" cx="245.2459" cy="771.7286" r="880.4387" gradientUnits="userSpaceOnUse">
	<stop  offset="0" style="stop-color:#558FFF"/>
	<stop  offset="0.508" style="stop-color:#8337F9"/>
	<stop  offset="1" style="stop-color:#AA1EF4"/>
</radialGradient>
<path class="st4" d="M714.5,1252.6c-2.9,7-11.4,12.7-19,12.7h-56.6c-7.6,0-13.8,6.2-13.8,13.8v66.7c0,7.6-2.4,8-5.2,1l-28.2-68.8
	c-2.9-7-5.2-12.7-5.2-12.7s-2.4-5.7-5.2-12.7l-28.2-68.8c-2.9-7,1-12.7,8.5-12.7h25.3c7.6,0,16.4-3.6,19.7-8.1
	c3.2-4.4,12.1-8.1,19.7-8.1h34.9c7.6,0,15.9-4.6,18.5-10.1c2.6-5.6-0.9-12.5-7.9-15.5l-32.1-13.6c-7-3-15-11.1-17.9-18.1l-13-32
	c-2.9-7-11.4-12.7-19-12.7H538c-7.6,0-16.1,5.7-19.1,12.7l-38.6,92.8c-2.9,7-2.9,18.4-0.1,25.4l28.2,68.8c2.9,7-1,12.7-8.5,12.7
	h-68.3c-7.6,0-16.1-5.7-19-12.7l-28.2-68.8c-2.9-7-2.9-18.5,0-25.5l91.3-222.5c2.9-7,11.4-12.7,19-12.7h51.5c7.6,0,20,0,27.5,0h58.7
	c7.6,0,16.1,5.7,19,12.7l91.3,222.5c2.9,7,2.9,18.5,0,25.5L714.5,1252.6z M579.2,1092.3c-4,0-9.7,5.7-12.6,12.7l-0.8,1.8
	c-2.9,7,0.9,12.7,8.5,12.7h9c7.6,0,11.5-5.8,8.8-12.8l-0.6-1.6C588.7,1098.1,583.2,1092.3,579.2,1092.3z"/>
</svg>
