<?xml version="1.0" encoding="utf-8"?>
<!-- Generator: Adobe Illustrator 24.0.2, SVG Export Plug-In . SVG Version: 6.00 Build 0)  -->
<svg version="1.1" id="Layer_1" xmlns="http://www.w3.org/2000/svg" xmlns:xlink="http://www.w3.org/1999/xlink" x="0px" y="0px"
	 viewBox="0 0 30 30" style="enable-background:new 0 0 30 30;" xml:space="preserve">
<style type="text/css">
	.st0{fill:#7F2EFF;}
	.st1{fill:#FFFFFF;}
</style>
<g>
	<path class="st0" d="M27.8,12.8L27.8,12.8C27.8,5,27.2,0,24.4,0S15,0,15,0S8.4,0,5.6,0C2.8,0,2.2,5,2.2,12.8v0l0,0c0,0,0,0,0,0
		C2.2,24.9,15,30,15,30S27.8,24.9,27.8,12.8C27.8,12.8,27.8,12.8,27.8,12.8L27.8,12.8z"/>
</g>
<g>
	<g>
		<path class="st1" d="M15.1,24l-0.5-0.2c-0.2-0.1-4.5-2-6.8-6.4c-0.3-0.6-0.1-1.4,0.6-1.7c0.6-0.3,1.4-0.1,1.7,0.6
			c1.4,2.8,3.9,4.4,5,4.9c1.1-0.6,3.6-2.2,5-4.9c0.3-0.6,1.1-0.9,1.7-0.6c0.6,0.3,0.9,1.1,0.6,1.7c-2.2,4.4-6.6,6.3-6.8,6.4L15.1,24
			z"/>
		<path class="st0" d="M15.1,24.3l-0.6-0.3c-0.2-0.1-4.6-2-6.9-6.5c-0.2-0.4-0.2-0.8-0.1-1.2c0.1-0.4,0.4-0.7,0.8-0.9
			c0.4-0.2,0.8-0.2,1.2-0.1c0.4,0.1,0.7,0.4,0.9,0.8c1.3,2.6,3.7,4.2,4.8,4.8c1.1-0.6,3.5-2.2,4.8-4.8c0.2-0.4,0.5-0.6,0.9-0.8
			c0.4-0.1,0.8-0.1,1.2,0.1c0.4,0.2,0.6,0.5,0.8,0.9c0.1,0.4,0.1,0.8-0.1,1.2c-2.3,4.5-6.7,6.4-6.9,6.5L15.1,24.3z M8.9,15.8
			c-0.2,0-0.3,0-0.5,0.1C8.2,16,8,16.3,7.9,16.5c-0.1,0.3-0.1,0.5,0.1,0.8c2.2,4.3,6.5,6.2,6.7,6.3l0.4,0.2l0.4-0.2
			c0.2-0.1,4.5-2,6.7-6.3c0.1-0.2,0.1-0.5,0.1-0.8c-0.1-0.3-0.3-0.5-0.5-0.6c-0.2-0.1-0.5-0.1-0.8-0.1c-0.3,0.1-0.5,0.3-0.6,0.5
			c-1.4,2.8-4,4.5-5.1,5.1l-0.1,0.1l-0.1-0.1c-1-0.6-3.6-2.2-5.1-5.1c-0.1-0.2-0.3-0.4-0.6-0.5C9.1,15.8,9,15.8,8.9,15.8z"/>
	</g>
</g>
<g>
	<g>
		<path class="st1" d="M15,15c-2.9,0-5.2-2.3-5.2-5.2s2.3-5.2,5.2-5.2s5.2,2.3,5.2,5.2S17.8,15,15,15z M15,7.2
			c-1.4,0-2.6,1.2-2.6,2.6s1.2,2.6,2.6,2.6s2.6-1.2,2.6-2.6S16.4,7.2,15,7.2z"/>
		<path class="st0" d="M15,15.2c-3,0-5.4-2.4-5.4-5.4S12,4.4,15,4.4s5.4,2.4,5.4,5.4S18,15.2,15,15.2z M15,4.9
			c-2.7,0-4.9,2.2-4.9,4.9s2.2,4.9,4.9,4.9c2.7,0,4.9-2.2,4.9-4.9S17.7,4.9,15,4.9z M15,12.6c-1.6,0-2.9-1.3-2.9-2.9
			s1.3-2.9,2.9-2.9c1.6,0,2.9,1.3,2.9,2.9S16.5,12.6,15,12.6z M15,7.4c-1.3,0-2.4,1.1-2.4,2.4s1.1,2.4,2.4,2.4
			c1.3,0,2.4-1.1,2.4-2.4S16.3,7.4,15,7.4z"/>
	</g>
</g>
</svg>
