<?xml version="1.0" encoding="utf-8"?>
<!-- Generator: Adobe Illustrator 24.0.2, SVG Export Plug-In . SVG Version: 6.00 Build 0)  -->
<svg version="1.1" id="Layer_1" xmlns="http://www.w3.org/2000/svg" xmlns:xlink="http://www.w3.org/1999/xlink" x="0px" y="0px"
	 viewBox="0 0 434 512" style="enable-background:new 0 0 434 512;" xml:space="preserve">
<style type="text/css">
	.st0{fill:#FFFFFF;}
</style>
<path class="st0" d="M398.2,393.3c-3.4,8.4-13.7,15.2-22.7,15.2h-67.7c-9.1,0-16.5,7.4-16.5,16.5v79.8c0,9.1-2.8,9.6-6.3,1.2
	l-33.8-82.3c-3.4-8.4-6.3-15.2-6.3-15.2c0,0-2.8-6.9-6.3-15.2L204.9,311c-3.4-8.4,1.2-15.2,10.2-15.2h30.3c9.1,0,19.7-4.3,23.5-9.7
	c3.9-5.3,14.5-9.7,23.5-9.7h41.8c9.1,0,19-5.5,22.2-12.1c3.1-6.7-1.1-15-9.4-18.6l-38.4-16.3c-8.3-3.5-18-13.3-21.4-21.7l-15.6-38.3
	c-3.4-8.4-13.6-15.3-22.7-15.3h-62c-9.1,0-19.3,6.8-22.8,15.2l-46.2,111.1c-3.5,8.4-3.5,22.1-0.1,30.5l33.8,82.3
	c3.4,8.4-1.2,15.2-10.2,15.2H59.6c-9.1,0-19.3-6.9-22.7-15.2L3.1,311c-3.4-8.4-3.4-22.1,0-30.5L112.3,14.2
	c3.4-8.4,13.7-15.2,22.7-15.2h61.7c9.1,0,23.9,0,32.9,0h70.3c9.1,0,19.3,6.9,22.7,15.2l109.3,266.3c3.4,8.4,3.4,22.1,0,30.5
	L398.2,393.3z M236.3,201.4c-4.8,0-11.6,6.8-15,15.2l-0.9,2.2c-3.5,8.4,1.1,15.2,10.1,15.2h10.7c9.1,0,13.8-6.9,10.5-15.3l-0.7-1.9
	C247.6,208.3,241,201.4,236.3,201.4z"/>
</svg>
