<?xml version="1.0" encoding="utf-8"?>
<!-- Generator: Adobe Illustrator 24.0.2, SVG Export Plug-In . SVG Version: 6.00 Build 0)  -->
<svg version="1.1" id="Layer_1" xmlns="http://www.w3.org/2000/svg" xmlns:xlink="http://www.w3.org/1999/xlink" x="0px" y="0px"
	 viewBox="0 0 30 30" style="enable-background:new 0 0 30 30;" xml:space="preserve">
<style type="text/css">
	.st0{fill:#7F2EFF;}
	.st1{fill:#FFFFFF;}
</style>
<g>
	<g>
		<circle class="st0" cx="15" cy="15" r="15"/>
	</g>
	<g>
		<g>
			<path class="st1" d="M15.3,19.5l-4.1-3.7c-0.5-0.5-0.6-1.3-0.1-1.8s1.3-0.6,1.8-0.1l2.1,1.9l3.4-3.8c0.5-0.5,1.3-0.6,1.8-0.1
				s0.6,1.3,0.1,1.8L15.3,19.5z"/>
			<path class="st0" d="M15.4,19.9L11.1,16c-0.6-0.6-0.7-1.5-0.1-2.2c0.3-0.3,0.7-0.5,1.1-0.5c0.4,0,0.8,0.1,1.1,0.4l2,1.8l3.3-3.7
				c0.6-0.6,1.5-0.7,2.2-0.1c0.3,0.3,0.5,0.6,0.5,1.1c0,0.4-0.1,0.8-0.4,1.1L15.4,19.9z M12.1,13.9L12.1,13.9
				c-0.3,0-0.6,0.1-0.8,0.3c-0.4,0.4-0.3,1.1,0.1,1.5l3.9,3.5l5-5.6c0.2-0.2,0.3-0.5,0.3-0.7c0-0.3-0.1-0.5-0.3-0.7
				c-0.4-0.4-1.1-0.3-1.5,0.1l-3.6,4l-2.4-2.2C12.6,14,12.4,13.9,12.1,13.9z"/>
		</g>
	</g>
	<g>
		<path class="st1" d="M15,4C9,4,4,8.9,4,15s4.9,11,11,11c0.7,0,1.3-0.6,1.3-1.3c0-0.7-0.6-1.3-1.3-1.3c-4.6,0-8.4-3.8-8.4-8.4
			s3.8-8.4,8.4-8.4s8.4,3.8,8.4,8.4c0,2-1.1,3.9-2.5,4.5c-0.9,0.4-1.8,0.1-2.7-0.7l0,0l-1.7,1.9c1.6,1.5,3.5,2,5.4,1.2
			c2.4-1,4.1-3.8,4.1-6.9C25.9,8.9,21,4,15,4z"/>
		<path class="st0" d="M15,26.2c-6.2,0-11.2-5-11.2-11.2S8.8,3.8,15,3.8s11.2,5,11.2,11.2c0,3.1-1.7,6.1-4.2,7.1
			c-1.9,0.8-4,0.3-5.6-1.3l-0.2-0.2l2-2.3l0.2,0.2l0,0c0.8,0.8,1.6,1,2.4,0.7c1.3-0.6,2.3-2.4,2.3-4.2c0-4.5-3.7-8.1-8.1-8.1
			c-4.5-0.1-8.2,3.6-8.2,8.1s3.7,8.1,8.1,8.1c0.8,0,1.5,0.7,1.5,1.5C16.5,25.5,15.8,26.2,15,26.2z M15,4.3C9.1,4.3,4.3,9.1,4.3,15
			S9.1,25.7,15,25.7c0.6,0,1-0.5,1-1c0-0.6-0.5-1-1-1c-4.8,0-8.6-3.9-8.6-8.6c0-4.8,3.9-8.6,8.6-8.6s8.6,3.9,8.6,8.6
			c0,2.1-1.1,4.1-2.6,4.7c-0.9,0.4-1.9,0.2-2.8-0.6l-1.4,1.4c1.5,1.3,3.3,1.7,4.9,1c2.3-1,3.9-3.7,3.9-6.6C25.7,9.1,20.9,4.3,15,4.3
			z"/>
	</g>
</g>
</svg>
