<?xml version="1.0" encoding="UTF-8" standalone="no"?>
<!-- Generator: Adobe Illustrator 24.0.2, SVG Export Plug-In . SVG Version: 6.00 Build 0)  -->

<svg
   version="1.1"
   id="Layer_1"
   x="0px"
   y="0px"
   viewBox="0 0 30 30"
   style="enable-background:new 0 0 30 30;"
   xml:space="preserve"
   sodipodi:docname="NIP-05-2-Icon-Amethyst.svg"
   inkscape:version="1.2.2 (b0a84865, 2022-12-01)"
   xmlns:inkscape="http://www.inkscape.org/namespaces/inkscape"
   xmlns:sodipodi="http://sodipodi.sourceforge.net/DTD/sodipodi-0.dtd"
   xmlns="http://www.w3.org/2000/svg"
   xmlns:svg="http://www.w3.org/2000/svg"><defs
   id="defs27" /><sodipodi:namedview
   id="namedview25"
   pagecolor="#ffffff"
   bordercolor="#000000"
   borderopacity="0.25"
   inkscape:showpageshadow="2"
   inkscape:pageopacity="0.0"
   inkscape:pagecheckerboard="0"
   inkscape:deskcolor="#d1d1d1"
   showgrid="false"
   inkscape:zoom="34.233333"
   inkscape:cx="9.0993184"
   inkscape:cy="15.701071"
   inkscape:window-width="2198"
   inkscape:window-height="1205"
   inkscape:window-x="0"
   inkscape:window-y="25"
   inkscape:window-maximized="0"
   inkscape:current-layer="g22" />
<style
   type="text/css"
   id="style2">
	.st0{fill:#7F2EFF;}
	.st1{fill:#FFFFFF;}
</style>
<g
   id="g22">
	<g
   id="g6">
		
	</g>
	<g
   id="g14"
   style="fill:#b198ec;fill-opacity:1"
   transform="matrix(1.3585023,0,0,1.3585023,-5.3775339,-5.3775339)">
		<g
   id="g12"
   style="fill:#b198ec;fill-opacity:1">
			<path
   class="st1"
   d="m 15.3,19.5 -4.1,-3.7 c -0.5,-0.5 -0.6,-1.3 -0.1,-1.8 0.5,-0.5 1.3,-0.6 1.8,-0.1 L 15,15.8 18.4,12 c 0.5,-0.5 1.3,-0.6 1.8,-0.1 0.5,0.5 0.6,1.3 0.1,1.8 z"
   id="path8"
   style="fill:#b198ec;fill-opacity:1" />
			<path
   class="st0"
   d="M 15.4,19.9 11.1,16 c -0.6,-0.6 -0.7,-1.5 -0.1,-2.2 0.3,-0.3 0.7,-0.5 1.1,-0.5 0.4,0 0.8,0.1 1.1,0.4 l 2,1.8 3.3,-3.7 c 0.6,-0.6 1.5,-0.7 2.2,-0.1 0.3,0.3 0.5,0.6 0.5,1.1 0,0.4 -0.1,0.8 -0.4,1.1 z m -3.3,-6 v 0 c -0.3,0 -0.6,0.1 -0.8,0.3 -0.4,0.4 -0.3,1.1 0.1,1.5 l 3.9,3.5 5,-5.6 c 0.2,-0.2 0.3,-0.5 0.3,-0.7 0,-0.3 -0.1,-0.5 -0.3,-0.7 -0.4,-0.4 -1.1,-0.3 -1.5,0.1 l -3.6,4 -2.4,-2.2 C 12.6,14 12.4,13.9 12.1,13.9 Z"
   id="path10"
   style="fill:#b198ec;fill-opacity:1" />
		</g>
	</g>
	<g
   id="g20"
   transform="matrix(1.3585023,0,0,1.3585023,-5.3775339,-5.3775339)">
		<path
   class="st1"
   d="M 15,4 C 9,4 4,8.9 4,15 c 0,6.1 4.9,11 11,11 0.7,0 1.3,-0.6 1.3,-1.3 0,-0.7 -0.6,-1.3 -1.3,-1.3 -4.6,0 -8.4,-3.8 -8.4,-8.4 0,-4.6 3.8,-8.4 8.4,-8.4 4.6,0 8.4,3.8 8.4,8.4 0,2 -1.1,3.9 -2.5,4.5 -0.9,0.4 -1.8,0.1 -2.7,-0.7 v 0 l -1.7,1.9 c 1.6,1.5 3.5,2 5.4,1.2 C 24.3,20.9 26,18.1 26,15 25.9,8.9 21,4 15,4 Z"
   id="path16"
   style="fill:#b198ec;fill-opacity:1" />
		
	</g>
</g>
</svg>
