<?xml version="1.0" encoding="utf-8"?>
<!-- Generator: Adobe Illustrator 24.0.2, SVG Export Plug-In . SVG Version: 6.00 Build 0)  -->
<svg version="1.1" id="Layer_1" xmlns="http://www.w3.org/2000/svg" xmlns:xlink="http://www.w3.org/1999/xlink" x="0px" y="0px"
	 viewBox="0 0 30 30" style="enable-background:new 0 0 30 30;" xml:space="preserve">
<style type="text/css">
	.st0{fill:#7F2EFF;}
	.st1{fill:#FFFFFF;}
</style>
<path class="st0" d="M13.4,0.3c0.9,0.5,2.3,0.5,3.1,0c0.9-0.5,2-0.3,2.6,0.5s1.9,1.3,2.9,1.2c1-0.1,2,0.5,2.2,1.5
	c0.3,1,1.2,1.9,2.2,2.2s1.6,1.3,1.5,2.2c-0.1,1,0.4,2.3,1.2,2.9c0.8,0.6,1,1.8,0.5,2.6c-0.5,0.9-0.5,2.3,0,3.1
	c0.5,0.9,0.3,2-0.5,2.6c-0.8,0.6-1.3,1.9-1.2,2.9c0.1,1-0.5,2-1.5,2.2c-1,0.3-1.9,1.2-2.2,2.2c-0.3,1-1.3,1.6-2.2,1.5
	c-1-0.1-2.3,0.4-2.9,1.2c-0.6,0.8-1.8,1-2.6,0.5c-0.9-0.5-2.3-0.5-3.1,0c-0.9,0.5-2,0.3-2.6-0.5c-0.6-0.8-1.9-1.3-2.9-1.2
	c-1,0.1-2-0.5-2.2-1.5s-1.2-1.9-2.2-2.2c-1-0.3-1.6-1.3-1.5-2.2c0.1-1-0.4-2.3-1.2-2.9s-1-1.8-0.5-2.6c0.5-0.9,0.5-2.3,0-3.1
	c-0.5-0.9-0.3-2,0.5-2.6S2.1,8.9,2,7.9s0.5-2,1.5-2.2s1.9-1.2,2.2-2.2S6.9,1.8,7.9,2s2.3-0.4,2.9-1.2S12.6-0.2,13.4,0.3z"/>
<g>
	<g>
		<g>
			<path class="st1" d="M14.2,20.6l-5.5-5c-0.5-0.5-0.6-1.3-0.1-1.8c0.5-0.5,1.3-0.6,1.8-0.1l3.6,3.2l5.4-6.1
				c0.5-0.5,1.3-0.6,1.8-0.1c0.5,0.5,0.6,1.3,0.1,1.8L14.2,20.6z"/>
			<path class="st0" d="M14.3,20.9l-5.7-5.1c-0.3-0.3-0.5-0.7-0.5-1.1c0-0.4,0.1-0.8,0.4-1.1c0.3-0.3,0.7-0.5,1.1-0.5
				c0.4,0,0.8,0.1,1.1,0.4l3.4,3.1l5.2-5.9c0.3-0.3,0.6-0.5,1.1-0.5c0.4,0,0.8,0.1,1.1,0.4c0.6,0.6,0.7,1.5,0.1,2.2L14.3,20.9z
				 M9.6,13.6C9.6,13.6,9.6,13.6,9.6,13.6c-0.3,0-0.6,0.1-0.8,0.3c-0.2,0.2-0.3,0.5-0.3,0.7c0,0.3,0.1,0.5,0.3,0.7l5.3,4.8l7-7.8
				c0.4-0.4,0.3-1.1-0.1-1.5c-0.4-0.4-1.1-0.3-1.5,0.1l-5.6,6.3l-3.8-3.4C10.1,13.7,9.8,13.6,9.6,13.6z"/>
		</g>
	</g>
</g>
</svg>
