<?xml version="1.0" encoding="utf-8"?>
<!-- Generator: Adobe Illustrator 24.0.2, SVG Export Plug-In . SVG Version: 6.00 Build 0)  -->
<svg version="1.1" id="Layer_1" xmlns="http://www.w3.org/2000/svg" xmlns:xlink="http://www.w3.org/1999/xlink" x="0px" y="0px"
	 viewBox="0 0 30 30" style="enable-background:new 0 0 30 30;" xml:space="preserve">
<style type="text/css">
	.st0{fill:#7F2EFF;}
	.st1{fill:#FFFFFF;}
</style>
<g>
	<g>
		<path class="st0" d="M26.9,18.3L26.9,18.3C26.9,18.3,26.9,18.3,26.9,18.3C26.9,7.3,15.2,0,15.2,0S3.6,7.3,3.6,18.3c0,0,0,0,0,0v0
			v0l0,0C3.6,24.8,8.8,30,15.2,30S26.9,24.8,26.9,18.3L26.9,18.3L26.9,18.3z"/>
	</g>
	<g>
		<g>
			<path class="st1" d="M15,23.7l-5.5-5c-0.5-0.5-0.6-1.3-0.1-1.8c0.5-0.5,1.3-0.6,1.8-0.1l3.6,3.2l5.4-6.1c0.5-0.5,1.3-0.6,1.8-0.1
				c0.5,0.5,0.6,1.3,0.1,1.8L15,23.7z"/>
			<path class="st0" d="M15,24.1l-5.7-5.1c-0.3-0.3-0.5-0.7-0.5-1.1c0-0.4,0.1-0.8,0.4-1.1c0.6-0.6,1.5-0.7,2.2-0.1l3.4,3.1l5.2-5.9
				c0.3-0.3,0.6-0.5,1.1-0.5c0.4,0,0.8,0.1,1.1,0.4c0.3,0.3,0.5,0.6,0.5,1.1c0,0.4-0.1,0.8-0.4,1.1L15,24.1z M10.4,16.7
				c-0.3,0-0.6,0.1-0.8,0.3c-0.2,0.2-0.3,0.5-0.3,0.7c0,0.3,0.1,0.5,0.3,0.7l5.3,4.8l7-7.8c0.2-0.2,0.3-0.5,0.3-0.8
				c0-0.3-0.1-0.5-0.3-0.7c-0.2-0.2-0.5-0.3-0.8-0.3c-0.3,0-0.5,0.1-0.7,0.3l-5.6,6.3L11.1,17C10.9,16.8,10.6,16.7,10.4,16.7z"/>
		</g>
	</g>
</g>
</svg>
