<svg id="Layer_1" data-name="Layer 1" xmlns="http://www.w3.org/2000/svg" xmlns:xlink="http://www.w3.org/1999/xlink" viewBox="0 0 424.96 310.43"><defs><style>.cls-1{fill:url(#linear-gradient);}.cls-2{fill:url(#linear-gradient-2);}.cls-3{fill:#672f80;}</style><linearGradient id="linear-gradient" x1="207.59" y1="57.17" x2="219.06" y2="57.17" gradientUnits="userSpaceOnUse"><stop offset="0" stop-color="#652d80"/><stop offset="1" stop-color="#2598cf"/></linearGradient><linearGradient id="linear-gradient-2" x1="335.87" y1="235.52" x2="506.02" y2="235.52" xlink:href="#linear-gradient"/></defs><title>Amethyst_svg_logo</title><ellipse class="cls-1" cx="213.33" cy="57.17" rx="5.74" ry="5.64"/><path class="cls-2" d="M506,285c-.2-.61-46.85-111.69-59.68-142.5-15.62,0-48.61,0-71.88,0-6.83,16.89-24.46,59.94-38.6,94.62,7.75,18.49,14.71,35.1,20.08,47.91l29.27,0a2,2,0,0,0,1.87-2.35c-.25-5.91-16.34-27.39-11.54-50.63,1.28-5,2.26-10.08,3.66-15.06a175.77,175.77,0,0,1,13.44-34.8c.89-1.69,1.3-2.45,3.35-1.17,4.37,2.72,9.25,2.56,14.11,2.21,4.19-.91,6.23-2.92,13.91-.88,1.52,0,3,0,4.55.14,3.69.29,7.15,1.17,9.37,4.51,2.42,3.65,2.81,7.78,2.42,12-.59,6.31-.17,12.19,5.17,16.64a57.52,57.52,0,0,0,6,4c2.65,1.7,5.85,2.44,8.12,4.8,1.34,1.39,2.13,2.87,1.55,4.85S459,232.1,457,232.32c-5.16.56-10.2-.49-15.27-1.1-.66-.08-1.31-.13-2-.17a11.47,11.47,0,0,1-3.81.13l-1.19,0a26.7,26.7,0,0,0-5.9,1.41c-4.78,1.74-9.13,3.66-14.77,3.56a4.32,4.32,0,0,0-2.05.89c-4.42,3.93-7.08,8.89-4.87,16.14,6.06,16.93,21.61,57.77,28.29,75.4-.19-11.94-.24-33.32-.28-43.7C461.83,285,502.74,285,506,285Z" transform="translate(-208.47 -142.42)"/><path class="cls-3" d="M255.51,415.12H226.57l-5.86,17.17H208.47l27.74-76.8h9.68l27.74,76.8H261.43Zm-3.3-10.32-11-33.55H241l-11,33.55Z" transform="translate(-208.47 -142.42)"/><path class="cls-3" d="M284.13,377.28h10.94v6.45h.21a17.59,17.59,0,0,1,14.18-6.44,20.28,20.28,0,0,1,9.11,1.94,27.2,27.2,0,0,1,6.23,5.18q6.38-7.22,17.11-7.12A18.64,18.64,0,0,1,354.25,382q5.55,4.82,5.76,14.13v36.11H349.07V399.95q0-5.7-3-8.69a10.32,10.32,0,0,0-7.69-3,10.49,10.49,0,0,0-7.75,3q-3.09,3-3.09,8.69v32.34H316.63V399.95q0-5.7-3-8.69a10.49,10.49,0,0,0-7.75-3,10.32,10.32,0,0,0-7.69,3q-3.14,3-3.14,8.69v32.34H284.13Z" transform="translate(-208.47 -142.42)"/><path class="cls-3" d="M580.19,422.18a14.63,14.63,0,0,0,7.69-1.81,5.65,5.65,0,0,0,3-5.07q0-2.9-1.78-4a9.43,9.43,0,0,0-4.87-1.29l-9.63-.83a18.43,18.43,0,0,1-11.15-4.56q-4.4-3.83-4.5-10.72.1-8.28,5.91-12.43,5.65-4.14,14.34-4.14a44,44,0,0,1,6.75.47,34.06,34.06,0,0,1,5.6,1.45,32,32,0,0,1,9,5.44l-6.75,7.82a33.81,33.81,0,0,0-6.65-3.68,22.6,22.6,0,0,0-8-1.29q-5.13,0-7.17,1.81a5.82,5.82,0,0,0-2.15,4.66,3.64,3.64,0,0,0,1.62,3.16q1.57,1.5,5.55,1.92l9,.67q8.48.62,12.25,5.07a17,17,0,0,1,3.51,11,13.92,13.92,0,0,1-6.44,12.06q-6.28,4.35-16.07,4.45-13.29,0-23.92-9.63l7.64-7.4Q569.67,422.18,580.19,422.18Z" transform="translate(-208.47 -142.42)"/><path class="cls-3" d="M382.11,408.91q0,6.46,3.79,9.81a12.75,12.75,0,0,0,9.26,3.41,16.52,16.52,0,0,0,11.94-5.22l7.94,6.66q-8.36,8.78-19.67,8.68A28.93,28.93,0,0,1,387,431a20.62,20.62,0,0,1-4-1.81,19.33,19.33,0,0,1-3.84-2.43,21.24,21.24,0,0,1-5.63-8.37q-2.37-5.16-2.37-13.43a36.74,36.74,0,0,1,2.05-13.22,23,23,0,0,1,5.26-8.47,19.66,19.66,0,0,1,7.31-4.55,23.83,23.83,0,0,1,7.89-1.39,22.94,22.94,0,0,1,15.83,6q6.57,6,6.68,16.63v8.88Zm23-8.88q-.21-6.25-3.42-9.45a12.28,12.28,0,0,0-16.2,0q-3.1,3.2-3.42,9.45Z" transform="translate(-208.47 -142.42)"/><path class="cls-3" d="M428.28,360.59h11v16.73h8v8.36h-8V417.9q-.11,4.15,3.89,4h4.1v10.36h-5.73a13,13,0,0,1-9.47-3.58q-3.79-3.42-3.79-9.89V385.68h-5.47v-8.36h5.47Z" transform="translate(-208.47 -142.42)"/><path class="cls-3" d="M614.44,360.59h11v16.73h8v8.36h-8V417.9q-.11,4.15,3.89,4h4.1v10.36h-5.73a13,13,0,0,1-9.47-3.58q-3.79-3.42-3.79-9.89V385.68H609v-8.36h5.47Z" transform="translate(-208.47 -142.42)"/><path class="cls-3" d="M457.57,355.72h11v27.75h.21A17.62,17.62,0,0,1,483,377a18.73,18.73,0,0,1,12.41,4.79q5.57,4.84,5.84,14.2v36.28h-11v-32.5q0-5.73-3.05-8.73a10.37,10.37,0,0,0-7.73-3,10.54,10.54,0,0,0-7.78,3q-3.1,3-3.1,8.73v32.5h-11Z" transform="translate(-208.47 -142.42)"/><path class="cls-3" d="M506.68,377.29H518.3l12.94,38.23h.21l12.88-38.23H556L532.5,442.08q-2.26,6.15-6.26,8.52a18.45,18.45,0,0,1-9.15,2.26h-3.63V442.5h3.21a7.38,7.38,0,0,0,4-1.16,6.37,6.37,0,0,0,2.58-3.58l3-8Z" transform="translate(-208.47 -142.42)"/></svg>