<?xml version="1.0" encoding="UTF-8" standalone="no"?>
<!-- Created with Inkscape (http://www.inkscape.org/) -->

<svg
   version="1.1"
   id="svg2"
   xml:space="preserve"
   width="1600"
   height="800"
   viewBox="0 0 1600 800"
   sodipodi:docname="Amethyst Assets.eps"
   xmlns:inkscape="http://www.inkscape.org/namespaces/inkscape"
   xmlns:sodipodi="http://sodipodi.sourceforge.net/DTD/sodipodi-0.dtd"
   xmlns="http://www.w3.org/2000/svg"
   xmlns:svg="http://www.w3.org/2000/svg"><defs
     id="defs6"><clipPath
       clipPathUnits="userSpaceOnUse"
       id="clipPath34"><path
         d="m 6325.09,3708.81 c -41.34,0 -74.81,33.5 -74.81,74.84 0,41.34 33.47,74.84 74.81,74.84 41.34,0 74.84,-33.5 74.84,-74.84 0,-41.34 -33.5,-74.84 -74.84,-74.84 z m -131.25,913.13 -850.41,-806.19 v -938.77 l 175.68,-166.57 c 5.58,383.19 124.36,939.72 330.28,1294.63 0,0 53.43,-46.15 147.82,-52.38 97.33,-6.47 324.17,38.62 426.65,-3.14 95.93,-39.1 102.91,-153.14 95.23,-245.81 -14.66,-176.73 71.83,-229.49 225.55,-306 76.6,-38.12 94.21,-81.97 69.5,-127.47 -27.26,-50.17 -154.45,-26.89 -296.25,-9.7 -151.52,18.34 -236.5,-83.41 -382.97,-74.13 -206.62,-270.4 -7.45,-645.38 -142.47,-924.72 l 201.39,-190.93 850.38,806.22 v 938.77 z"
         id="path32" /></clipPath><linearGradient
       x1="0"
       y1="0"
       x2="1"
       y2="0"
       gradientUnits="userSpaceOnUse"
       gradientTransform="matrix(1104.69,1913.39,1913.39,-1104.69,5641.47,2389.67)"
       spreadMethod="pad"
       id="linearGradient42"><stop
         style="stop-opacity:1;stop-color:#550066"
         offset="0"
         id="stop36" /><stop
         style="stop-opacity:1;stop-color:#550066"
         offset="0.00046311"
         id="stop38" /><stop
         style="stop-opacity:1;stop-color:#a75ccc"
         offset="1"
         id="stop40" /></linearGradient><clipPath
       clipPathUnits="userSpaceOnUse"
       id="clipPath52"><path
         d="m 2583.97,3539.5 c -61.53,0 -111.36,49.88 -111.36,111.4 0,61.53 49.83,111.41 111.36,111.41 61.53,0 111.4,-49.88 111.4,-111.41 0,-61.52 -49.87,-111.4 -111.4,-111.4 z M 2388.6,4898.68 1122.8,3698.69 V 2301.35 l 261.5,-247.92 c 8.3,570.35 185.1,1398.74 491.61,1927 0,0 79.53,-68.68 220.02,-77.96 144.88,-9.62 482.52,57.49 635.05,-4.68 142.8,-58.18 153.19,-227.93 141.75,-365.87 -21.82,-263.06 106.93,-341.59 335.73,-455.47 114.01,-56.74 140.23,-122.02 103.44,-189.74 -40.57,-74.68 -229.89,-40.03 -440.95,-14.44 -225.54,27.3 -352.03,-124.15 -570.05,-110.33 -307.55,-402.49 -11.09,-960.64 -212.06,-1376.43 l 299.76,-284.19 1265.77,1200.03 v 1397.34 z"
         id="path50" /></clipPath><linearGradient
       x1="0"
       y1="0"
       x2="1"
       y2="0"
       gradientUnits="userSpaceOnUse"
       gradientTransform="matrix(1644.31,2848.02,2848.02,-1644.31,1566.43,1576)"
       spreadMethod="pad"
       id="linearGradient60"><stop
         style="stop-opacity:1;stop-color:#550066"
         offset="0"
         id="stop54" /><stop
         style="stop-opacity:1;stop-color:#550066"
         offset="0.00046311"
         id="stop56" /><stop
         style="stop-opacity:1;stop-color:#a75ccc"
         offset="1"
         id="stop58" /></linearGradient><clipPath
       clipPathUnits="userSpaceOnUse"
       id="clipPath74"><path
         d="m 10040.1,3110.82 c -12.6,0 -22.8,10.24 -22.8,22.88 0,12.64 10.2,22.88 22.8,22.88 12.7,0 22.9,-10.24 22.9,-22.88 0,-12.64 -10.2,-22.88 -22.9,-22.88 z M 10000,3390 9740,3143.52 v -287.03 l 53.71,-50.92 c 1.71,117.15 38.03,287.31 100.98,395.82 0,0 16.34,-14.11 45.2,-16.02 29.76,-1.97 99.11,11.81 130.41,-0.96 29.4,-11.95 31.5,-46.82 29.1,-75.15 -4.4,-54.04 22,-70.17 69,-93.56 23.4,-11.65 28.8,-25.06 21.3,-38.97 -8.4,-15.34 -47.3,-8.22 -90.6,-2.97 -46.3,5.61 -72.3,-25.5 -117.11,-22.66 -63.17,-82.67 -2.28,-197.32 -43.56,-282.73 l 61.57,-58.37 260,246.49 v 287.03 z"
         id="path72" /></clipPath><linearGradient
       x1="0"
       y1="0"
       x2="1"
       y2="0"
       gradientUnits="userSpaceOnUse"
       gradientTransform="matrix(337.75,585,585,-337.75,9831.12,2707.5)"
       spreadMethod="pad"
       id="linearGradient82"><stop
         style="stop-opacity:1;stop-color:#550066"
         offset="0"
         id="stop76" /><stop
         style="stop-opacity:1;stop-color:#550066"
         offset="0.00046311"
         id="stop78" /><stop
         style="stop-opacity:1;stop-color:#a75ccc"
         offset="1"
         id="stop80" /></linearGradient></defs><sodipodi:namedview
     id="namedview4"
     pagecolor="#ffffff"
     bordercolor="#666666"
     borderopacity="1.0"
     inkscape:pageshadow="2"
     inkscape:pageopacity="0.0"
     inkscape:pagecheckerboard="0" /><g
     id="g8"
     inkscape:groupmode="layer"
     inkscape:label="ink_ext_XXXXXX"
     transform="matrix(1.3333333,0,0,-1.3333333,0,800)"><g
       id="g10"
       transform="scale(0.1)"><path
         d="m 5128.65,1507.17 -42.72,126.17 -42.22,-126.17 z m 21.6,-64.8 H 5021.62 L 5001,1381.49 h -87.87 l 124.69,344.64 h 97.21 l 124.69,-344.64 h -88.85 l -20.62,60.88"
         style="fill:#660066;fill-opacity:1;fill-rule:nonzero;stroke:none"
         id="path12" /><path
         d="m 5676.91,1726.13 v -344.64 h -83.94 v 206.69 l -77.08,-206.69 h -67.75 l -77.56,207.18 v -207.18 h -83.95 v 344.64 h 99.16 l 96.72,-238.59 95.73,238.59 h 98.67"
         style="fill:#660066;fill-opacity:1;fill-rule:nonzero;stroke:none"
         id="path14" /><path
         d="m 5820.66,1658.87 v -69.71 h 112.42 v -64.8 h -112.42 v -75.61 h 127.15 v -67.26 h -211.1 v 344.64 h 211.1 v -67.26 h -127.15"
         style="fill:#660066;fill-opacity:1;fill-rule:nonzero;stroke:none"
         id="path16" /><path
         d="m 6240.15,1726.13 v -67.26 h -91.31 v -277.38 h -83.95 v 277.38 h -91.31 v 67.26 h 266.57"
         style="fill:#660066;fill-opacity:1;fill-rule:nonzero;stroke:none"
         id="path18" /><path
         d="m 6567.55,1726.13 v -344.64 h -83.95 v 141.88 h -130.59 v -141.88 h -83.95 v 344.64 h 83.95 v -135.01 h 130.59 v 135.01 h 83.95"
         style="fill:#660066;fill-opacity:1;fill-rule:nonzero;stroke:none"
         id="path20" /><path
         d="m 6914.48,1726.13 -119.3,-230.74 v -113.9 h -83.95 v 113.9 l -119.29,230.74 h 95.24 l 66.77,-144.34 66.27,144.34 h 94.26"
         style="fill:#660066;fill-opacity:1;fill-rule:nonzero;stroke:none"
         id="path22" /><path
         d="m 6983.89,1390.33 c -19.96,8.18 -35.92,20.29 -47.86,36.33 -11.96,16.03 -18.25,35.35 -18.9,57.93 h 89.34 c 1.31,-12.76 5.73,-22.51 13.26,-29.21 7.52,-6.71 17.34,-10.06 29.46,-10.06 12.43,0 22.25,2.86 29.45,8.59 7.2,5.72 10.8,13.66 10.8,23.81 0,8.5 -2.87,15.54 -8.59,21.11 -5.73,5.56 -12.76,10.14 -21.11,13.74 -8.35,3.6 -20.21,7.69 -35.59,12.28 -22.26,6.87 -40.43,13.74 -54.5,20.62 -14.07,6.87 -26.18,17.01 -36.32,30.43 -10.15,13.42 -15.22,30.93 -15.22,52.53 0,32.08 11.61,57.2 34.85,75.36 23.24,18.16 53.51,27.25 90.83,27.25 37.96,0 68.56,-9.09 91.8,-27.25 23.23,-18.16 35.67,-43.45 37.31,-75.85 h -90.82 c -0.66,11.12 -4.75,19.88 -12.28,26.27 -7.53,6.38 -17.18,9.57 -28.96,9.57 -10.15,0 -18.33,-2.7 -24.55,-8.1 -6.22,-5.4 -9.32,-13.18 -9.32,-23.32 0,-11.13 5.23,-19.81 15.71,-26.02 10.47,-6.22 26.83,-12.93 49.09,-20.13 22.25,-7.53 40.33,-14.73 54.25,-21.6 13.9,-6.87 25.93,-16.86 36.08,-29.95 10.14,-13.09 15.22,-29.94 15.22,-50.56 0,-19.64 -5,-37.48 -14.98,-53.51 -9.98,-16.04 -24.46,-28.81 -43.44,-38.29 -18.99,-9.5 -41.41,-14.24 -67.26,-14.24 -25.21,0 -47.79,4.09 -67.75,12.27"
         style="fill:#660066;fill-opacity:1;fill-rule:nonzero;stroke:none"
         id="path24" /><path
         d="m 7464.31,1726.13 v -67.26 H 7373 v -277.38 h -83.95 v 277.38 h -91.32 v 67.26 h 266.58"
         style="fill:#660066;fill-opacity:1;fill-rule:nonzero;stroke:none"
         id="path26" /><g
         id="g28"><g
           id="g30"
           clip-path="url(#clipPath34)"><path
             d="m 6325.09,3708.81 c -41.34,0 -74.81,33.5 -74.81,74.84 0,41.34 33.47,74.84 74.81,74.84 41.34,0 74.84,-33.5 74.84,-74.84 0,-41.34 -33.5,-74.84 -74.84,-74.84 z m -131.25,913.13 -850.41,-806.19 v -938.77 l 175.68,-166.57 c 5.58,383.19 124.36,939.72 330.28,1294.63 0,0 53.43,-46.15 147.82,-52.38 97.33,-6.47 324.17,38.62 426.65,-3.14 95.93,-39.1 102.91,-153.14 95.23,-245.81 -14.66,-176.73 71.83,-229.49 225.55,-306 76.6,-38.12 94.21,-81.97 69.5,-127.47 -27.26,-50.17 -154.45,-26.89 -296.25,-9.7 -151.52,18.34 -236.5,-83.41 -382.97,-74.13 -206.62,-270.4 -7.45,-645.38 -142.47,-924.72 l 201.39,-190.93 850.38,806.22 v 938.77 l -850.38,806.19"
             style="fill:url(#linearGradient42);fill-opacity:1;fill-rule:nonzero;stroke:none"
             id="path44" /></g></g><g
         id="g46"><g
           id="g48"
           clip-path="url(#clipPath52)"><path
             d="m 2583.97,3539.5 c -61.53,0 -111.36,49.88 -111.36,111.4 0,61.53 49.83,111.41 111.36,111.41 61.53,0 111.4,-49.88 111.4,-111.41 0,-61.52 -49.87,-111.4 -111.4,-111.4 z M 2388.6,4898.68 1122.8,3698.69 V 2301.35 l 261.5,-247.92 c 8.3,570.35 185.1,1398.74 491.61,1927 0,0 79.53,-68.68 220.02,-77.96 144.88,-9.62 482.52,57.49 635.05,-4.68 142.8,-58.18 153.19,-227.93 141.75,-365.87 -21.82,-263.06 106.93,-341.59 335.73,-455.47 114.01,-56.74 140.23,-122.02 103.44,-189.74 -40.57,-74.68 -229.89,-40.03 -440.95,-14.44 -225.54,27.3 -352.03,-124.15 -570.05,-110.33 -307.55,-402.49 -11.09,-960.64 -212.06,-1376.43 L 2388.6,1101.32 3654.37,2301.35 V 3698.69 L 2388.6,4898.68"
             style="fill:url(#linearGradient60);fill-opacity:1;fill-rule:nonzero;stroke:none"
             id="path62" /></g></g><path
         d="m 8000,0 h 4000 V 6000 H 8000 V 0"
         style="fill:#e6e6e6;fill-opacity:1;fill-rule:nonzero;stroke:none"
         id="path64" /><path
         d="m 10480,3000 c 0,-265.1 -214.9,-480 -480,-480 -265.1,0 -480,214.9 -480,480 0,265.1 214.9,480 480,480 265.1,0 480,-214.9 480,-480"
         style="fill:#ffffff;fill-opacity:1;fill-rule:nonzero;stroke:none"
         id="path66" /><g
         id="g68"><g
           id="g70"
           clip-path="url(#clipPath74)"><path
             d="m 10040.1,3110.82 c -12.6,0 -22.8,10.24 -22.8,22.88 0,12.64 10.2,22.88 22.8,22.88 12.7,0 22.9,-10.24 22.9,-22.88 0,-12.64 -10.2,-22.88 -22.9,-22.88 z M 10000,3390 9740,3143.52 v -287.03 l 53.71,-50.92 c 1.71,117.15 38.03,287.31 100.98,395.82 0,0 16.34,-14.11 45.2,-16.02 29.76,-1.97 99.11,11.81 130.41,-0.96 29.4,-11.95 31.5,-46.82 29.1,-75.15 -4.4,-54.04 22,-70.17 69,-93.56 23.4,-11.65 28.8,-25.06 21.3,-38.97 -8.4,-15.34 -47.3,-8.22 -90.6,-2.97 -46.3,5.61 -72.3,-25.5 -117.11,-22.66 -63.17,-82.67 -2.28,-197.32 -43.56,-282.73 l 61.57,-58.37 260,246.49 v 287.03 L 10000,3390"
             style="fill:url(#linearGradient82);fill-opacity:1;fill-rule:nonzero;stroke:none"
             id="path84" /></g></g></g></g></svg>
