<?xml version="1.0" encoding="UTF-8" standalone="no"?>
<svg
   xmlns:dc="http://purl.org/dc/elements/1.1/"
   xmlns:cc="http://creativecommons.org/ns#"
   xmlns:rdf="http://www.w3.org/1999/02/22-rdf-syntax-ns#"
   xmlns:svg="http://www.w3.org/2000/svg"
   xmlns="http://www.w3.org/2000/svg"
   xmlns:sodipodi="http://sodipodi.sourceforge.net/DTD/sodipodi-0.dtd"
   xmlns:inkscape="http://www.inkscape.org/namespaces/inkscape"
   sodipodi:docname="amethysts.svg"
   inkscape:version="1.0beta1 (32d4812, 2019-09-19)"
   id="svg1496"
   version="1.1"
   viewBox="0 0 192.62152 288.93265"
   height="288.93265mm"
   width="192.62152mm">
  <defs
     id="defs1490">
    <clipPath
       clipPathUnits="userSpaceOnUse"
       id="clipPath52">
      <path
         inkscape:connector-curvature="0"
         d="m 2583.97,3539.5 c -61.53,0 -111.36,49.88 -111.36,111.4 0,61.53 49.83,111.41 111.36,111.41 61.53,0 111.4,-49.88 111.4,-111.41 0,-61.52 -49.87,-111.4 -111.4,-111.4 z M 2388.6,4898.68 1122.8,3698.69 V 2301.35 l 261.5,-247.92 c 8.3,570.35 185.1,1398.74 491.61,1927 0,0 79.53,-68.68 220.02,-77.96 144.88,-9.62 482.52,57.49 635.05,-4.68 142.8,-58.18 153.19,-227.93 141.75,-365.87 -21.82,-263.06 106.93,-341.59 335.73,-455.47 114.01,-56.74 140.23,-122.02 103.44,-189.74 -40.57,-74.68 -229.89,-40.03 -440.95,-14.44 -225.54,27.3 -352.03,-124.15 -570.05,-110.33 -307.55,-402.49 -11.09,-960.64 -212.06,-1376.43 l 299.76,-284.19 1265.77,1200.03 v 1397.34 z"
         id="path50" />
    </clipPath>
    <linearGradient
       x1="0"
       y1="0"
       x2="1"
       y2="0"
       gradientUnits="userSpaceOnUse"
       gradientTransform="matrix(1644.31,2848.02,2848.02,-1644.31,1566.43,1576)"
       spreadMethod="pad"
       id="linearGradient60">
      <stop
         style="stop-opacity:1;stop-color:#550066"
         offset="0"
         id="stop54" />
      <stop
         style="stop-opacity:1;stop-color:#550066"
         offset="0.00046311"
         id="stop56" />
      <stop
         style="stop-opacity:1;stop-color:#a75ccc"
         offset="1"
         id="stop58" />
    </linearGradient>
  </defs>
  <sodipodi:namedview
     inkscape:window-maximized="0"
     inkscape:window-y="25"
     inkscape:window-x="0"
     inkscape:window-height="1209"
     inkscape:window-width="1600"
     fit-margin-bottom="0"
     fit-margin-right="0"
     fit-margin-left="0"
     fit-margin-top="0"
     showgrid="false"
     inkscape:document-rotation="0"
     inkscape:current-layer="layer1"
     inkscape:document-units="mm"
     inkscape:cy="544.58587"
     inkscape:cx="360.19993"
     inkscape:zoom="0.35"
     inkscape:pageshadow="2"
     inkscape:pageopacity="0.0"
     borderopacity="1.0"
     bordercolor="#666666"
     pagecolor="#ffffff"
     id="base" />
  <metadata
     id="metadata1493">
    <rdf:RDF>
      <cc:Work
         rdf:about="">
        <dc:format>image/svg+xml</dc:format>
        <dc:type
           rdf:resource="http://purl.org/dc/dcmitype/StillImage" />
        <dc:title></dc:title>
      </cc:Work>
    </rdf:RDF>
  </metadata>
  <g
     transform="translate(-10.530434,-4.0783229)"
     id="layer1"
     inkscape:groupmode="layer"
     inkscape:label="Layer 1">
    <g
       style="stroke-width:0.463646"
       transform="matrix(0.07608777,0,0,-0.07608777,-74.900914,376.80796)"
       id="g46">
      <g
         style="stroke-width:0.463646"
         id="g48"
         clip-path="url(#clipPath52)">
        <path
           inkscape:connector-curvature="0"
           d="m 2583.97,3539.5 c -61.53,0 -111.36,49.88 -111.36,111.4 0,61.53 49.83,111.41 111.36,111.41 61.53,0 111.4,-49.88 111.4,-111.41 0,-61.52 -49.87,-111.4 -111.4,-111.4 z M 2388.6,4898.68 1122.8,3698.69 V 2301.35 l 261.5,-247.92 c 8.3,570.35 185.1,1398.74 491.61,1927 0,0 79.53,-68.68 220.02,-77.96 144.88,-9.62 482.52,57.49 635.05,-4.68 142.8,-58.18 153.19,-227.93 141.75,-365.87 -21.82,-263.06 106.93,-341.59 335.73,-455.47 114.01,-56.74 140.23,-122.02 103.44,-189.74 -40.57,-74.68 -229.89,-40.03 -440.95,-14.44 -225.54,27.3 -352.03,-124.15 -570.05,-110.33 -307.55,-402.49 -11.09,-960.64 -212.06,-1376.43 L 2388.6,1101.32 3654.37,2301.35 V 3698.69 L 2388.6,4898.68"
           style="fill:url(#linearGradient60);fill-opacity:1;fill-rule:nonzero;stroke:none;stroke-width:0.463646"
           id="path62" />
      </g>
    </g>
  </g>
</svg>
