<?xml version="1.0" encoding="UTF-8" standalone="no"?>
<!-- Created with Inkscape (http://www.inkscape.org/) -->

<svg
   version="1.1"
   id="svg1"
   width="206.66667"
   height="80"
   viewBox="0 0 206.66667 80"
   sodipodi:docname="Get_it_On_Zap_Store.svg"
   inkscape:version="1.4 (e7c3feb, 2024-10-09)"
   xml:space="preserve"
   xmlns:inkscape="http://www.inkscape.org/namespaces/inkscape"
   xmlns:sodipodi="http://sodipodi.sourceforge.net/DTD/sodipodi-0.dtd"
   xmlns:xlink="http://www.w3.org/1999/xlink"
   xmlns="http://www.w3.org/2000/svg"
   xmlns:svg="http://www.w3.org/2000/svg"><sodipodi:namedview
     id="namedview1"
     pagecolor="#ffffff"
     bordercolor="#000000"
     borderopacity="0.25"
     inkscape:showpageshadow="2"
     inkscape:pageopacity="0.0"
     inkscape:pagecheckerboard="0"
     inkscape:deskcolor="#d1d1d1"
     inkscape:zoom="2.9201612"
     inkscape:cx="84.241925"
     inkscape:cy="26.710854"
     inkscape:window-width="1366"
     inkscape:window-height="761"
     inkscape:window-x="0"
     inkscape:window-y="0"
     inkscape:window-maximized="1"
     inkscape:current-layer="layer-MC0"
     showguides="true"><inkscape:page
       x="0"
       y="0"
       inkscape:label="1"
       id="page1"
       width="206.66667"
       height="80"
       margin="0"
       bleed="0" /></sodipodi:namedview><defs
     id="defs1"><linearGradient
       id="swatch43"
       inkscape:swatch="solid"><stop
         style="stop-color:#ffffff;stop-opacity:1;"
         offset="0"
         id="stop43" /></linearGradient><linearGradient
       id="swatch41"
       inkscape:swatch="solid"><stop
         style="stop-color:#ffffff;stop-opacity:1;"
         offset="0"
         id="stop41" /></linearGradient><linearGradient
       id="linearGradient35"
       inkscape:swatch="gradient"><stop
         style="stop-color:#000000;stop-opacity:1;"
         offset="0"
         id="stop35" /><stop
         style="stop-color:#000000;stop-opacity:0;"
         offset="1"
         id="stop36" /></linearGradient><clipPath
       clipPathUnits="userSpaceOnUse"
       id="clipPath1"><path
         d="M 0,60 H 155 V 0 H 0 Z"
         id="path1" /></clipPath><clipPath
       clipPathUnits="userSpaceOnUse"
       id="clipPath3"><path
         d="M 0,60 H 155 V 0 H 0 Z"
         transform="matrix(1.3333333,0,0,-1.3333333,0,80)"
         id="path3" /></clipPath><clipPath
       clipPathUnits="userSpaceOnUse"
       id="clipPath5"><path
         d="M 0,60 H 155 V 0 H 0 Z"
         transform="translate(-140.0001,-10.000101)"
         id="path5" /></clipPath><clipPath
       clipPathUnits="userSpaceOnUse"
       id="clipPath7"><path
         d="M 0,60 H 155 V 0 H 0 Z"
         transform="translate(-140.0001,-49.999901)"
         id="path7" /></clipPath><clipPath
       clipPathUnits="userSpaceOnUse"
       id="clipPath9"><path
         d="M 0,60 H 155 V 0 H 0 Z"
         transform="translate(-57.418501,-39.756801)"
         id="path9" /></clipPath><clipPath
       clipPathUnits="userSpaceOnUse"
       id="clipPath11"><path
         d="M 0,60 H 155 V 0 H 0 Z"
         transform="translate(-62.027801,-42.262701)"
         id="path11" /></clipPath><clipPath
       clipPathUnits="userSpaceOnUse"
       id="clipPath13"><path
         d="M 0,60 H 155 V 0 H 0 Z"
         transform="translate(-65.278802,-37.000001)"
         id="path13" /></clipPath><clipPath
       clipPathUnits="userSpaceOnUse"
       id="clipPath15"><path
         d="M 0,60 H 155 V 0 H 0 Z"
         id="path15" /></clipPath><clipPath
       clipPathUnits="userSpaceOnUse"
       id="clipPath17"><path
         d="M 0,60 H 155 V 0 H 0 Z"
         transform="translate(-74.128402,-37.000001)"
         id="path17" /></clipPath><clipPath
       clipPathUnits="userSpaceOnUse"
       id="clipPath19"><path
         d="M 0,60 H 155 V 0 H 0 Z"
         transform="translate(-79.779302,-38.277801)"
         id="path19" /></clipPath><clipPath
       clipPathUnits="userSpaceOnUse"
       id="clipPath21"><path
         d="M 0,60 H 155 V 0 H 0 Z"
         transform="translate(-79.779302,-38.277801)"
         id="path21" /></clipPath><clipPath
       clipPathUnits="userSpaceOnUse"
       id="clipPath23"><path
         d="M 0,60 H 155 V 0 H 0 Z"
         transform="translate(-85.575205,-37.000001)"
         id="path23" /></clipPath><clipPath
       clipPathUnits="userSpaceOnUse"
       id="clipPath25"><path
         d="M 0,60 H 155 V 0 H 0 Z"
         id="path25" /></clipPath><clipPath
       clipPathUnits="userSpaceOnUse"
       id="clipPath27"><path
         d="M 0,60 H 155 V 0 H 0 Z"
         transform="translate(-30.717301,-30.575901)"
         id="path27" /></clipPath><clipPath
       clipPathUnits="userSpaceOnUse"
       id="clipPath29"><path
         d="M 0,60 H 155 V 0 H 0 Z"
         transform="translate(-41.488201,-32.500101)"
         id="path29" /></clipPath><clipPath
       clipPathUnits="userSpaceOnUse"
       id="clipPath31"><path
         d="M 0,60 H 155 V 0 H 0 Z"
         transform="translate(-20.0701,-40.722901)"
         id="path31" /></clipPath><clipPath
       clipPathUnits="userSpaceOnUse"
       id="clipPath33"><path
         d="M 0,60 H 155 V 0 H 0 Z"
         transform="translate(-30.795901,-29.999101)"
         id="path33" /></clipPath><linearGradient
       inkscape:collect="always"
       xlink:href="#swatch41"
       id="linearGradient41"
       x1="92.133889"
       y1="25.858658"
       x2="177.03866"
       y2="25.858658"
       gradientUnits="userSpaceOnUse" /><linearGradient
       id="swatch6"
       inkscape:swatch="solid"><stop
         style="stop-color:#6161ff;stop-opacity:1;"
         offset="0"
         id="stop6" /></linearGradient></defs><g
     id="layer-MC0"
     inkscape:groupmode="layer"
     inkscape:label="artwork"><path
       id="path4"
       d="m 0,0 h -125 c -2.75,0 -5,2.25 -5,5 v 30 c 0,2.75 2.25,5 5,5 H 0 c 2.75,0 5,-2.25 5,-5 V 5 C 5,2.25 2.75,0 0,0"
       style="display:inline;fill:#000000;fill-opacity:1;fill-rule:nonzero;stroke:none"
       transform="matrix(1.3333333,0,0,-1.3333333,186.6668,66.666533)"
       clip-path="url(#clipPath5)"
       sodipodi:insensitive="true" /><path
       id="path6"
       d="m 0,0 h -125 c -2.75,0 -5,-2.25 -5,-5 v -30 c 0,-2.75 2.25,-5 5,-5 H 0 c 2.75,0 5,2.25 5,5 V -5 C 5,-2.25 2.75,0 0,0 m 0,-0.8 c 2.316,0 4.2,-1.884 4.2,-4.2 v -30 c 0,-2.316 -1.884,-4.2 -4.2,-4.2 h -125 c -2.316,0 -4.2,1.884 -4.2,4.2 v 30 c 0,2.316 1.884,4.2 4.2,4.2 z"
       style="display:inline;fill:#a6a6a6;fill-opacity:1;fill-rule:nonzero;stroke:none"
       transform="matrix(1.3333333,0,0,-1.3333333,186.6668,13.333467)"
       clip-path="url(#clipPath7)"
       sodipodi:insensitive="true" /><path
       id="path8"
       d="m 0,0 c 0,-0.838 -0.248,-1.505 -0.745,-2.003 -0.565,-0.592 -1.3,-0.888 -2.204,-0.888 -0.867,0 -1.603,0.3 -2.208,0.901 -0.607,0.6 -0.909,1.345 -0.909,2.233 0,0.889 0.302,1.633 0.909,2.234 0.605,0.6 1.341,0.901 2.208,0.901 0.429,0 0.841,-0.084 1.231,-0.252 0.391,-0.168 0.704,-0.391 0.939,-0.67 L -1.307,1.928 C -1.704,2.402 -2.251,2.64 -2.949,2.64 -3.581,2.64 -4.127,2.418 -4.588,1.974 -5.049,1.529 -5.279,0.953 -5.279,0.243 c 0,-0.709 0.23,-1.286 0.691,-1.73 0.461,-0.445 1.007,-0.666 1.639,-0.666 0.67,0 1.228,0.223 1.676,0.67 0.29,0.291 0.457,0.695 0.502,1.215 h -2.178 v 0.721 h 2.907 C -0.014,0.296 0,0.145 0,0"
       style="display:inline;fill:#ffffff;fill-opacity:1;fill-rule:nonzero;stroke:#ffffff;stroke-width:0.2;stroke-linecap:butt;stroke-linejoin:miter;stroke-miterlimit:10;stroke-dasharray:none;stroke-opacity:1"
       transform="matrix(1.3333333,0,0,-1.3333333,76.558,26.990933)"
       clip-path="url(#clipPath9)" /><path
       id="path10"
       d="m 0,0 h -2.732 v -1.902 h 2.464 V -2.623 H -2.732 V -4.525 H 0 v -0.738 h -3.503 v 6 l 3.503,0 z"
       style="fill:#ffffff;fill-opacity:1;fill-rule:nonzero;stroke:#f9f9f9;stroke-width:0.2;stroke-linecap:butt;stroke-linejoin:miter;stroke-miterlimit:10;stroke-dasharray:none;stroke-opacity:1"
       transform="matrix(1.3333333,0,0,-1.3333333,82.703733,23.649733)"
       clip-path="url(#clipPath11)" /><path
       id="path12"
       d="M 0,0 H -0.771 V 5.263 H -2.447 V 6 H 1.676 V 5.263 H 0 Z"
       style="display:inline;fill:#ffffff;fill-opacity:1;fill-rule:nonzero;stroke:#ffffff;stroke-width:0.2;stroke-linecap:butt;stroke-linejoin:miter;stroke-miterlimit:10;stroke-dasharray:none;stroke-opacity:1"
       transform="matrix(1.3333333,0,0,-1.3333333,87.0384,30.666667)"
       clip-path="url(#clipPath13)" /><path
       id="path14"
       d="m 69.938,43 h 0.771 v -6 h -0.771 z"
       style="display:inline;fill:#ffffff;fill-opacity:1;fill-rule:nonzero;stroke:#ffffff;stroke-width:0.2;stroke-linecap:butt;stroke-linejoin:miter;stroke-miterlimit:10;stroke-dasharray:none;stroke-opacity:1"
       transform="matrix(1.3333333,0,0,-1.3333333,0,80)"
       clip-path="url(#clipPath15)" /><path
       id="path16"
       d="M 0,0 H -0.771 V 5.263 H -2.447 V 6 H 1.676 V 5.263 H 0 Z"
       style="display:inline;fill:#ffffff;fill-opacity:1;fill-rule:nonzero;stroke:#ffffff;stroke-width:0.2;stroke-linecap:butt;stroke-linejoin:miter;stroke-miterlimit:10;stroke-dasharray:none;stroke-opacity:1"
       transform="matrix(1.3333333,0,0,-1.3333333,98.837867,30.666667)"
       clip-path="url(#clipPath17)" /><path
       id="path18"
       d="M 0,0 C 0.444,-0.45 0.987,-0.674 1.63,-0.674 2.273,-0.674 2.816,-0.45 3.26,0 3.704,0.45 3.927,1.024 3.927,1.722 3.927,2.42 3.704,2.995 3.26,3.444 2.816,3.894 2.273,4.119 1.63,4.119 0.987,4.119 0.444,3.894 0,3.444 -0.443,2.995 -0.666,2.42 -0.666,1.722 -0.666,1.024 -0.443,0.45 0,0 m 3.83,-0.502 c -0.59,-0.607 -1.323,-0.91 -2.2,-0.91 -0.877,0 -1.61,0.303 -2.199,0.91 -0.59,0.606 -0.884,1.347 -0.884,2.224 0,0.877 0.294,1.619 0.884,2.225 0.589,0.606 1.322,0.91 2.199,0.91 0.872,0 1.603,-0.305 2.196,-0.914 C 4.418,3.334 4.714,2.594 4.714,1.722 4.714,0.845 4.419,0.104 3.83,-0.502"
       style="display:inline;fill:#ffffff;fill-opacity:1;fill-rule:nonzero;stroke:none"
       transform="matrix(1.3333333,0,0,-1.3333333,106.3724,28.962933)"
       clip-path="url(#clipPath19)" /><path
       id="path20"
       d="M 0,0 C 0.444,-0.45 0.987,-0.674 1.63,-0.674 2.273,-0.674 2.816,-0.45 3.26,0 3.704,0.45 3.927,1.024 3.927,1.722 3.927,2.42 3.704,2.995 3.26,3.444 2.816,3.894 2.273,4.119 1.63,4.119 0.987,4.119 0.444,3.894 0,3.444 -0.443,2.995 -0.666,2.42 -0.666,1.722 -0.666,1.024 -0.443,0.45 0,0 Z m 3.83,-0.502 c -0.59,-0.607 -1.323,-0.91 -2.2,-0.91 -0.877,0 -1.61,0.303 -2.199,0.91 -0.59,0.606 -0.884,1.347 -0.884,2.224 0,0.877 0.294,1.619 0.884,2.225 0.589,0.606 1.322,0.91 2.199,0.91 0.872,0 1.603,-0.305 2.196,-0.914 C 4.418,3.334 4.714,2.594 4.714,1.722 4.714,0.845 4.419,0.104 3.83,-0.502 Z"
       style="display:inline;fill:none;stroke:#ffffff;stroke-width:0.2;stroke-linecap:butt;stroke-linejoin:miter;stroke-miterlimit:10;stroke-dasharray:none;stroke-opacity:1"
       transform="matrix(1.3333333,0,0,-1.3333333,106.3724,28.962933)"
       clip-path="url(#clipPath21)" /><path
       id="path22"
       d="M 0,0 V 6 H 0.938 L 3.854,1.333 H 3.888 L 3.854,2.489 V 6 H 4.626 V 0 H 3.821 L 0.77,4.894 H 0.737 L 0.77,3.737 V 0 Z"
       style="display:inline;fill:#ffffff;fill-opacity:1;fill-rule:nonzero;stroke:#ffffff;stroke-width:0.2;stroke-linecap:butt;stroke-linejoin:miter;stroke-miterlimit:10;stroke-dasharray:none;stroke-opacity:1"
       transform="matrix(1.3333333,0,0,-1.3333333,114.10027,30.666667)"
       clip-path="url(#clipPath23)" /><path
       d="m 68.372399,53.636782 v -2.129803 l 7.127073,-9.927441 q 0.436593,-0.593552 0.932184,-1.187104 0.495591,-0.60519 1.014782,-1.198741 -0.837785,0.03492 -1.68737,0.04655 -0.837785,0 -1.675571,0 H 68.337 V 36.295759 H 81.706162 V 38.4372 l -6.997275,9.752868 q -0.460192,0.640105 -0.991183,1.280209 -0.530991,0.640105 -1.08558,1.28021 0.896784,-0.04655 1.781768,-0.04655 0.884985,-0.01164 1.781769,-0.01164 h 5.5459 v 2.944482 z m 19.882646,0.256041 q -1.887966,0 -3.138743,-0.977614 -1.250779,-0.989252 -1.250779,-2.921205 0,-1.454783 0.707988,-2.2811 0.707987,-0.826317 1.840767,-1.21038 1.13278,-0.384063 2.430757,-0.500445 1.69917,-0.162936 2.442556,-0.33751 0.755187,-0.186212 0.755187,-0.826317 v -0.05819 q 0,-0.826317 -0.542791,-1.280209 -0.53099,-0.453893 -1.522172,-0.453893 -1.026582,0 -1.651971,0.442254 -0.625389,0.430617 -0.837785,1.059082 L 84.243117,44.01194 q 0.50739,-1.687549 2.017764,-2.618611 1.522173,-0.931061 3.728733,-0.931061 1.415975,0 2.690352,0.442254 1.286178,0.442254 2.088563,1.419869 0.814186,0.965976 0.814186,2.54878 v 8.763615 h -3.35114 v -1.803931 h -0.117999 q -0.48379,0.907784 -1.439574,1.489698 -0.955783,0.570274 -2.418957,0.570274 z m 1.002983,-2.455674 q 1.238978,0 2.017763,-0.709934 0.790586,-0.709934 0.790586,-1.74574 v -1.40823 q -0.212396,0.151297 -0.696187,0.26768 -0.471992,0.104744 -1.002983,0.19785 -0.530989,0.08147 -0.920383,0.128021 -0.979382,0.139659 -1.581172,0.546999 -0.601789,0.407339 -0.601789,1.187103 0,0.756488 0.55459,1.152188 0.56639,0.384063 1.439575,0.384063 z m 9.345433,7.064428 V 40.625199 h 3.480939 v 2.187994 h 0.1652 q 0.23599,-0.512083 0.68439,-1.059082 0.46019,-0.546998 1.20357,-0.919422 0.75519,-0.372425 1.87617,-0.372425 1.46317,0 2.67856,0.744849 1.21537,0.744849 1.93516,2.234547 0.73158,1.489698 0.73158,3.712607 0,2.164718 -0.70798,3.666054 -0.70799,1.489698 -1.92337,2.269463 -1.21538,0.768125 -2.73755,0.768125 -1.07378,0 -1.81717,-0.360786 -0.74339,-0.360786 -1.21538,-0.884509 -0.46019,-0.53536 -0.70798,-1.059082 h -0.1062 v 6.948045 z m 6.301089,-7.448491 q 1.38057,0 2.10036,-1.093996 0.73159,-1.093998 0.73159,-2.816461 0,-1.710825 -0.71979,-2.793184 -0.71978,-1.093997 -2.11216,-1.093997 -1.36878,0 -2.11216,1.059082 -0.73159,1.059082 -0.73159,2.828099 0,1.769016 0.74339,2.839737 0.74338,1.07072 2.10036,1.07072 z m 21.18062,2.839737 q -3.17414,0 -5.07391,-1.431506 -1.88796,-1.443145 -1.95876,-4.201415 h 3.50454 q 0.0944,1.315125 1.06197,1.978506 0.97939,0.651743 2.43077,0.651743 1.43956,0 2.31275,-0.60519 0.88499,-0.616828 0.88499,-1.606081 0,-0.896146 -0.80239,-1.373315 -0.79058,-0.477169 -2.23016,-0.826317 l -1.93517,-0.477169 q -2.23016,-0.535361 -3.49274,-1.67591 -1.26257,-1.152189 -1.26257,-3.037588 0,-1.571166 0.84959,-2.746631 0.86138,-1.175465 2.34815,-1.827208 1.49857,-0.651743 3.41014,-0.651743 1.94696,0 3.39834,0.663381 1.45137,0.651743 2.26556,1.827208 0.81418,1.163827 0.83779,2.68844 h -3.48094 q -0.0943,-1.047444 -0.90859,-1.617719 -0.80238,-0.570275 -2.14756,-0.570275 -1.38057,0 -2.13576,0.570275 -0.74338,0.558637 -0.74338,1.431506 0,0.965976 0.83778,1.443146 0.84959,0.477169 1.97056,0.744849 l 1.59297,0.384063 q 1.47497,0.33751 2.66676,0.977614 1.19177,0.628466 1.88797,1.640996 0.69618,1.00089 0.69618,2.455674 0,2.362568 -1.79357,3.782437 -1.78177,1.408229 -4.99131,1.408229 z m 15.84712,-13.267624 v 2.665164 h -2.46615 v 6.540706 q 0,1.21038 1.20357,1.21038 0.2006,0 0.55459,-0.04655 0.3658,-0.05819 0.56639,-0.104745 l 0.5074,2.61861 q -0.58999,0.174574 -1.17999,0.244403 -0.57819,0.06983 -1.10917,0.06983 -1.98237,0 -3.03255,-0.9427 -1.05018,-0.954337 -1.05018,-2.746631 v -6.8433 h -1.81717 v -2.665164 h 1.81717 v -3.095778 h 3.53994 v 3.095778 z m 7.96486,13.267624 q -1.98237,0 -3.43375,-0.837955 -1.45136,-0.849593 -2.24195,-2.350929 -0.77879,-1.512975 -0.77879,-3.514757 0,-2.01342 0.77879,-3.526395 0.79059,-1.512974 2.24195,-2.350929 1.45138,-0.849594 3.43375,-0.849594 1.98236,0 3.43374,0.849594 1.45137,0.837955 2.23016,2.350929 0.79059,1.512975 0.79059,3.526395 0,2.001782 -0.79059,3.514757 -0.77879,1.501336 -2.23016,2.350929 -1.45138,0.837955 -3.43374,0.837955 z m 0,-2.746631 q 1.41597,0 2.13576,-1.128911 0.71979,-1.128912 0.71979,-2.839737 0,-1.722463 -0.71979,-2.839737 -0.71979,-1.128912 -2.13576,-1.128912 -1.41598,0 -2.13576,1.128912 -0.70799,1.117274 -0.70799,2.839737 0,1.710825 0.70799,2.839737 0.71978,1.128911 2.13576,1.128911 z m 8.92064,2.49059 V 40.625199 h 3.42194 v 2.269463 h 0.1416 q 0.36579,-1.198742 1.21537,-1.81557 0.86139,-0.628466 1.97057,-0.628466 0.60179,0 1.14458,0.116383 v 3.119055 q -0.236,-0.06983 -0.69619,-0.116383 -0.44839,-0.05819 -0.83779,-0.05819 -1.22717,0 -2.02955,0.756488 -0.79059,0.756488 -0.79059,1.966867 v 7.401938 z m 15.20992,0.256041 q -2.01775,0 -3.48093,-0.814678 -1.46317,-0.814679 -2.25376,-2.316015 -0.77879,-1.501336 -0.77879,-3.56131 0,-2.01342 0.77879,-3.526394 0.79059,-1.512975 2.20656,-2.362568 1.42778,-0.849594 3.35114,-0.849594 1.72277,0 3.12694,0.721572 1.40418,0.721573 2.23017,2.187994 0.83778,1.466422 0.83778,3.689331 v 0.977614 h -9.02684 q 0.059,1.594443 0.89679,2.409121 0.83778,0.81468 2.17116,0.81468 0.93218,0 1.59297,-0.384063 0.67259,-0.395701 0.95578,-1.152189 l 3.20955,0.593552 q -0.4838,1.617719 -2.00597,2.595333 -1.51037,0.977614 -3.81134,0.977614 z m -2.98534,-8.042042 h 5.5931 q -0.1298,-1.268571 -0.82598,-2.01342 -0.69619,-0.744849 -1.92337,-0.744849 -1.27438,0 -2.00597,0.779764 -0.73158,0.768126 -0.83778,1.978505 z"
       id="text37"
       style="font-weight:bold;font-size:24px;font-family:Inter;-inkscape-font-specification:'Inter, Bold';fill:#ffffff;stroke-width:1.7342;paint-order:fill markers stroke"
       aria-label="Zap Store" /><g
       id="g24"
       transform="matrix(3.7795276,0,0,3.7795276,17.529104,16)"
       inkscape:label="Logo"
       style="display:inline"><g
         inkscape:label="Livello 1"
         id="layer1"><rect
           style="display:inline;fill:#6161ff;fill-opacity:1;stroke:#000000;stroke-width:0;stroke-linejoin:bevel;stroke-dasharray:none;stroke-opacity:1;paint-order:fill markers stroke"
           id="rect1"
           width="10.507396"
           height="10.507395"
           x="1.0963022"
           y="1.0963026"
           inkscape:label="Backgroung"
           sodipodi:insensitive="true" /></g><g
         id="layer5"
         inkscape:label="Livello 2"><path
           style="display:inline;fill:#fefefd;fill-opacity:1;stroke:#000000;stroke-width:0;stroke-dasharray:none;stroke-opacity:1"
           d="M 6.2190829,9.2556827 C 5.7706422,8.9305541 5.3828071,8.6452291 5.3572273,8.6216271 5.3250433,8.5919311 5.2821448,8.5387354 5.2821448,8.4855974 c 0,-0.1243212 0.072532,-0.1389624 0.3457503,-0.2071253 0.2791625,-0.069646 0.3442815,-0.112156 0.3442815,-0.2247496 0,-0.056615 -0.1617284,-0.3295604 -0.8337866,-1.4071634 C 4.6798076,5.9112508 4.2937847,5.2893175 4.2805615,5.264485 4.2429223,5.1938007 4.2401881,5.1080444 4.3065239,5.0575731 4.3597528,5.0170741 4.4322242,4.999666 4.523938,5.0053488 l 0.720765,-0.00577 C 6.1037206,4.9926988 6.1298264,4.9959388 6.185764,4.9696398 6.232024,4.9454068 6.24109,4.9028988 6.242473,4.8711318 6.243983,4.8364628 6.202928,4.5672718 6.0644867,3.9409532 5.9569675,3.4545273 5.8689583,3.0232824 5.8689106,2.982631 5.8687258,2.8249876 6.0714782,2.7558183 6.1824255,2.875675 6.2916798,2.9937027 8.4077796,5.9147303 8.427327,5.9552084 8.474868,6.0536544 8.423657,6.1166716 8.360049,6.138083 8.312345,6.15414 8.1791154,6.175739 7.5334597,6.198041 6.8749031,6.220788 6.7495214,6.230053 6.7049468,6.259259 6.5953851,6.331047 6.5958094,6.341216 6.7379788,7.0509616 6.9096943,7.9082078 6.9046554,7.9022123 7.3157644,7.738427 7.4299096,7.692952 7.547084,7.655745 7.5761521,7.655745 c 0.061954,0 0.1781525,0.021206 0.1729051,0.1586068 -7.928e-4,0.020759 -0.106319,0.46997 -0.2356665,0.9981324 C 7.2559518,9.8636802 7.208634,9.8950781 7.1312053,9.883563 7.0646839,9.8736701 6.9371387,9.7762876 6.2190829,9.2556827 Z"
           id="path9-3"
           inkscape:label="Fulmine"
           sodipodi:nodetypes="sssssssscscsssssssssssssss" /></g></g></g></svg>
