<?xml version="1.0" encoding="UTF-8" standalone="no"?>
<!-- Created with Inkscape (http://www.inkscape.org/) -->

<svg
   height="64"
   width="64"
   version="1.1"
   id="svg2142"
   sodipodi:docname="Bitcoin.svg"
   inkscape:version="1.2.2 (b0a84865, 2022-12-01)"
   xmlns:inkscape="http://www.inkscape.org/namespaces/inkscape"
   xmlns:sodipodi="http://sodipodi.sourceforge.net/DTD/sodipodi-0.dtd"
   xmlns="http://www.w3.org/2000/svg"
   xmlns:svg="http://www.w3.org/2000/svg">
  <defs
     id="defs2146" />
  <sodipodi:namedview
     id="namedview2144"
     pagecolor="#ffffff"
     bordercolor="#000000"
     borderopacity="0.25"
     inkscape:showpageshadow="2"
     inkscape:pageopacity="0.0"
     inkscape:pagecheckerboard="0"
     inkscape:deskcolor="#d1d1d1"
     showgrid="false"
     inkscape:zoom="11.346854"
     inkscape:cx="25.68994"
     inkscape:cy="34.150435"
     inkscape:window-width="2216"
     inkscape:window-height="1205"
     inkscape:window-x="0"
     inkscape:window-y="25"
     inkscape:window-maximized="0"
     inkscape:current-layer="g2140" />
  <g
     transform="translate(0.00630876,-0.00301984)"
     id="g2140">
    <path
       fill="#FFF"
       d="M 54.918461,25.762243 C 55.924243,19.039132 50.805332,15.424946 43.805907,13.013911 L 46.076418,3.9066072 40.532772,2.5250379 38.322261,11.392343 c -1.457358,-0.363155 -2.95419,-0.705784 -4.441548,-1.045254 l 2.2263,-8.9257278 -5.540488,-1.38156955 -2.27209,9.10414775 C 27.088128,8.8692044 25.903926,8.5976271 24.75446,8.3118397 l 0.0063,-0.028421 -7.64521,-1.9089341 -1.474727,5.9210104 c 0,0 4.11313,0.942625 4.026288,1.001046 2.245248,0.560522 2.651034,2.046301 2.583139,3.224188 l -2.586297,10.37519 c 0.154736,0.03947 0.35526,0.09632 0.576312,0.184736 -0.184736,-0.04579 -0.382103,-0.09632 -0.585786,-0.145262 L 16.02928,41.469502 c -0.274735,0.6821 -0.971045,1.705252 -2.540508,1.316834 0.05526,0.08052 -4.0294458,-1.005784 -4.0294458,-1.005784 l -2.752086,6.345746 7.2141598,1.798409 c 1.342097,0.336313 2.657351,0.688415 3.952079,1.019993 l -2.294195,9.211515 5.537329,1.381569 2.272089,-9.113621 c 1.512622,0.410523 2.981033,0.789468 4.417864,1.146307 l -2.264194,9.070991 5.543646,1.381568 2.294195,-9.194146 c 9.453092,1.788935 16.561463,1.067361 19.553547,-7.482579 2.411037,-6.884163 -0.119999,-10.855189 -5.093648,-13.444643 3.622079,-0.835258 6.350482,-3.217873 7.078371,-8.139418 z M 42.252234,43.523698 c -1.713147,6.884164 -13.304119,3.16261 -17.061987,2.229459 l 3.044189,-12.2036 c 3.757869,0.937889 15.808312,2.794718 14.017798,9.974141 z m 1.714725,-17.860927 c -1.563148,6.262061 -11.210449,3.080504 -14.339901,2.30051 l 2.759981,-11.068345 c 3.129451,0.779995 13.207802,2.235775 11.57992,8.767835 z"
       id="path2138"
       style="fill:#f7931a;fill-opacity:1;stroke-width:1.57894" />
  </g>
</svg>
