<?xml version="1.0" encoding="UTF-8" standalone="no"?>
<svg
   viewBox="0 0 400 400"
   id="vector"
   version="1.1"
   sodipodi:docname="cashu.svg"
   inkscape:version="1.2.2 (b0a84865, 2022-12-01)"
   xmlns:inkscape="http://www.inkscape.org/namespaces/inkscape"
   xmlns:sodipodi="http://sodipodi.sourceforge.net/DTD/sodipodi-0.dtd"
   xmlns="http://www.w3.org/2000/svg"
   xmlns:svg="http://www.w3.org/2000/svg">
  <defs
     id="defs5208" />
  <sodipodi:namedview
     id="namedview5206"
     pagecolor="#ffffff"
     bordercolor="#000000"
     borderopacity="0.25"
     inkscape:showpageshadow="2"
     inkscape:pageopacity="0.0"
     inkscape:pagecheckerboard="0"
     inkscape:deskcolor="#d1d1d1"
     showgrid="false"
     showguides="true"
     inkscape:zoom="1.2279006"
     inkscape:cx="194.23397"
     inkscape:cy="52.528684"
     inkscape:window-width="1390"
     inkscape:window-height="1205"
     inkscape:window-x="1026"
     inkscape:window-y="25"
     inkscape:window-maximized="0"
     inkscape:current-layer="vector" />
  <path
     style="opacity:1;fill:#d6c09a;fill-opacity:1;stroke:#d6c09a;stroke-width:1.23101;stroke-dasharray:none;stroke-opacity:1"
     d="M 248.91677,2.1531106 V 25.234624 h 25.23579 v 71.091062 h -25.23579 l 0.22718,24.771794 -22.15643,0.0111 -0.13525,69.22013 22.0645,-0.53167 v 45.32551 h 74.47635 v 24.31252 h 24.92803 v 24.00478 h 23.38927 v 69.24454 h -23.08151 v 23.08151 h -24.92804 v 23.00458 H 126.20005 v -23.0046 H 100.50264 V 352.45355 H 74.959093 V 329.67979 H 51.800641 V 282.90126 H 25.949346 V 49.239398 h 26.08211 V 25.157686 H 74.574401 V 2.1531106 Z"
     id="path5450"
     sodipodi:nodetypes="ccccccccccccccccccccccccccccccccccc" />
  <path
     id="path5450-2"
     style="fill:#bb9366;fill-opacity:1;stroke:#bb9366;stroke-width:1.23101;stroke-dasharray:none;stroke-opacity:1"
     d="M 74.390221,2.2678325 V 25.272407 H 51.847272 V 49.35412 H 25.765157 l 0.407279,233.66186 H 51.708771 C 52.428181,236.89816 76.750102,25.189654 125.23904,25.349346 L 125.38401,2.2678325 Z M 51.616457,282.99979 v 46.79472 h 23.158456 v 22.77376 H 99.936159 V 331.11208 H 75.162005 v -47.89299 z m 48.701983,71.11686 v 21.76395 h 25.46901 v -21.76395 z m 223.27759,0.3847 v 21.37925 h 24.84868 v -21.37925 z m -197.58017,23.00457 v 21.37926 h 197.50082 v -21.37926 z"
     sodipodi:nodetypes="cccccccccccccccccccccccccccccccccc" />
  <path
     style="opacity:1;fill:#c4a47b;fill-opacity:1;stroke:#c4a47b;stroke-width:1.23101;stroke-dasharray:none;stroke-opacity:1"
     d="M 74.466078,25.204849 125.2795,25.706117 V 49.249261 H 100.50534 V 213.58964 h 24.92804 v 47.39404 h 48.62505 v 24.00478 h 25.69742 v 22.92763 h 22.92764 v 23.00458 h 125.94813 v 23.4662 h -24.8511 v 23.00458 H 125.97195 v -23.38927 h -25.8513 V 330.99761 H 75.3465 V 283.29097 L 51.58133,283.07167 51.48734,49.319271 h 22.770363 z"
     id="path6020"
     sodipodi:nodetypes="ccccccccccccccccccccccccccc" />
  <path
     id="path7838"
     style="opacity:1;fill:#000000;fill-opacity:1;stroke:none;stroke-width:1.23101;stroke-dasharray:none;stroke-opacity:1"
     d="m 25.598063,120.67844 v 18.25362 h 9.749535 v 10.54537 h 8.150658 v 9.92505 h 10.191932 v 7.70827 h 67.434082 v -7.97515 h 10.01161 v -9.83609 h 10.19193 v -20.82386 h 17.72227 v 20.64834 h 10.27849 v 9.74714 h 7.88618 v 7.79721 h 67.52306 v -7.6193 h 9.74712 v -9.83609 h 10.36745 v -10.36984 h 9.57161 v -17.80884 z m 153.100157,7.5111 h 9.3937 v 10.14625 l 10.55739,0.0433 v 10.01162 h 9.39851 v -10.15106 h -9.32158 V 128.1896 l 9.6149,0.0433 v 10.10297 h 8.80705 l 0.0529,10.23281 9.21576,0.0457 v 9.5692 l -9.25904,-0.0432 0.0433,-9.57161 h -8.90563 v 9.21576 h -9.56921 v -9.17008 l -10.63432,-0.089 0.0457,-10.14625 -9.43938,-0.0433 z m -135.288923,1.35124 h 9.393695 v 10.14624 l 10.557388,0.0433 v 10.0116 h 9.398505 V 139.5909 h -9.321566 v -10.05007 l 9.614893,0.0433 v 10.10297 h 8.807035 l 0.05293,10.2328 9.215777,0.0457 v 9.56922 l -9.259047,-0.0433 0.04333,-9.57161 h -8.905615 v 9.21578 h -9.569308 v -9.1701 l -10.634327,-0.089 0.04568,-10.14625 -9.439377,-0.0433 z" />
</svg>
