<?xml version="1.0" encoding="UTF-8" standalone="no"?>
<svg
   viewBox="0 0 512 512"
   id="vector"
   version="1.1"
   sodipodi:docname="coffee.svg"
   inkscape:version="1.2.2 (b0a84865, 2022-12-01)"
   xmlns:inkscape="http://www.inkscape.org/namespaces/inkscape"
   xmlns:sodipodi="http://sodipodi.sourceforge.net/DTD/sodipodi-0.dtd"
   xmlns="http://www.w3.org/2000/svg"
   xmlns:svg="http://www.w3.org/2000/svg">
  <defs
     id="defs429" />
  <sodipodi:namedview
     id="namedview427"
     pagecolor="#ffffff"
     bordercolor="#000000"
     borderopacity="0.25"
     inkscape:showpageshadow="2"
     inkscape:pageopacity="0.0"
     inkscape:pagecheckerboard="0"
     inkscape:deskcolor="#d1d1d1"
     showgrid="false"
     inkscape:zoom="1.4183568"
     inkscape:cx="74.73437"
     inkscape:cy="168.85737"
     inkscape:window-width="2353"
     inkscape:window-height="1205"
     inkscape:window-x="154"
     inkscape:window-y="100"
     inkscape:window-maximized="0"
     inkscape:current-layer="vector" />
  <path
     id="path_3"
     d="m 204.58272,84.840504 c 1.80845,1.808458 0.93255,0.93255 0,0 z m 161.69124,1.049943 c 1.80846,1.808458 0.93255,0.93255 0,0 z"
     fill="#00ffff"
     stroke-width="1.04994" />
  <path
     id="path_6"
     d="M 198.66227,121.40716 C 164.79995,123.96587 67.446546,149.54661 72,206 c 0.77288,22.17762 1.937799,44.34026 4.818359,66.35352 C 79.88843,298.23675 84.05346,324.1649 92.388672,349 106.87188,385.44853 139.19135,413.74531 177,423.80664 c 38.87316,10.6193 72.80992,12.78497 119.29883,-1.24023 36.08225,-9.86128 67.99311,-36.53615 79.89453,-72.56641 3.28243,-8.75943 5.18945,-17.81392 6.80664,-27 19.07386,0.97598 38.69133,-1.20613 57,-7.02734 26.14401,-9.16172 52.49271,-29.44882 55,-58.97266 1.91791,-18.30342 -3.15941,-37.98625 -18,-49.91797 C 460.14447,191.68195 436.45271,188.46533 414.52539,190 c -5.64248,-1.83103 -18.35397,4.17907 -18.77539,-4.05664 -20.51648,-40.18303 -70.97477,-60.23537 -111.02904,-64.18953 -14.6071,-1.33203 -52.19637,-2.90538 -86.05869,-0.34667 z m 59.40974,25.5914 c 34.00891,4.20129 71.20236,8.75541 97.92799,32.02878 12.04549,10.07476 22.19688,28.31347 11.66797,42.97266 -17.98181,24.58629 -49.28152,33.87777 -77.66797,40.36133 -29.86209,6.48244 -60.80797,5.52205 -91,2.55664 -31.78569,-4.82551 -66.13067,-10.77655 -90.91797,-32.94531 C 98.324708,222.50175 93.436721,206.95897 101.77734,195 116.52696,170.94944 145.29279,161.04086 171,153.30664 181.21016,150.70499 191.52414,148.17017 202,147 m 218.78906,82.83594 c 8.29465,0.0507 16.46161,0.88182 24.02149,4.51562 16.06033,8.09021 9.01512,31.65913 -4.81055,38.25977 -15.35479,7.76011 -33.11284,9.67209 -50,11.38867 1.74373,-18.01393 4.07588,-36.01893 6,-54 8.07229,0.51408 16.49442,-0.21478 24.78906,-0.16406 z"
     style="fill:#e0e0e0;fill-opacity:1"
     sodipodi:nodetypes="zccccccccccccczcccccccccsccccs"
     class="UnoptimicedTransforms"
     transform="matrix(1.0499432,0,0,1.0499432,-12.755514,-8.604437)" />
  <ellipse
     style="fill:#6d4b41;fill-opacity:1;stroke:#6d4b41;stroke-width:8.81928;stroke-dasharray:none;stroke-opacity:1"
     id="path869"
     ry="61.231174"
     rx="141.91878"
     cy="207.67036"
     cx="232.63841" />
  <path
     id="path_48"
     d="m 251.83016,158.33652 c -37.40343,0.75701 -63.36678,0.0952 -100.79454,11.34569 -16.24464,6.79619 -36.11656,14.39542 -42.82643,32.06249 4.78012,30.85051 60.55359,22.12454 56.06726,2.78932 -4.14112,-14.16367 14.98436,-19.74444 25.60706,-15.89509 21.72808,3.90724 40.06135,18.15635 61.94665,21.11541 8.81362,1.93572 20.57083,-2.79421 17.76189,-13.61986 -3.87401,-6.98165 0.15546,-14.74069 8.48669,-14.61206 25.3553,-1.82586 47.15812,13.80802 70.34619,21.11541 7.04559,3.95606 15.78282,-3.15314 8.54549,-9.65318 -28.17339,-23.14739 -72.36886,-35.31236 -105.14026,-34.64813 z"
     fill="#b59075"
     stroke-width="1.04994"
     sodipodi:nodetypes="ccccccccccc" />
  <path
     id="path_116"
     d="m 293.91503,199.80928 c -6.74378,4.63357 0.26246,16.20339 -8.57891,20.24586 -16.21035,10.23238 -35.69663,0.43989 -52.40494,-3.62211 -14.15857,-3.75018 -29.51786,-10.91206 -44.09761,-6.12432 -10.45537,5.46407 -3.97321,21.89119 7.3496,19.42395 7.85354,-1.08254 15.55189,-2.72384 23.09875,1.04994 22.26778,6.96038 45.97102,11.5143 69.29625,8.72083 10.74591,-2.04005 15.89665,-12.26271 24.14869,-17.82069 10.27207,-2.42946 22.44888,12.79529 30.50715,1.75026 3.6419,-11.7421 -12.07265,-16.17559 -20.32085,-19.70319 -9.31468,-3.2573 -19.11384,-5.82373 -28.99813,-3.92053 z"
     fill="#b59074"
     stroke-width="1.04994" />
  <path
     id="path_147"
     d="m 403.02197,222.38306 c -0.0267,0.81414 0.014,9.72705 0.0522,10.4763 34.64255,-0.0563 53.29636,2.38274 65.08433,16.86849 4.07833,5.36073 7.46536,10.61614 10.14969,8.40731 -1.55896,-19.67583 -20.1814,-34.58218 -36.43831,-36.16053 -12.80208,-1.14695 -26.07961,-1.13078 -38.8479,0.40843 z"
     fill="#6aa5ac"
     stroke-width="1.04994"
     sodipodi:nodetypes="cccccc" />
  <path
     id="path_186"
     d="m 460.30619,242.28571 c 10.12096,17.21107 -6.21833,36.21448 -22.95486,40.03178 -13.30848,3.42857 -26.93168,6.23692 -40.62901,7.26193 -1.5122,4.60515 -7.20282,17.17523 1.16081,15.74915 18.91586,-0.45376 38.87207,-2.29443 55.7123,-11.65703 13.42389,-7.04686 22.47412,-20.88228 24.65233,-35.77548 -5.44646,2.15729 -11.70413,-14.70729 -17.94157,-15.61035 z"
     fill="#bbced3"
     stroke-width="1.04994"
     sodipodi:nodetypes="ccccccc" />
  <path
     id="path_190"
     d="m 113.23766,244.43186 c 1.80846,1.80846 0.93255,0.93255 0,0 z m 237.28716,0 c 1.80845,1.80846 0.93255,0.93255 0,0 z"
     fill="#97827b"
     stroke-width="1.04994" />
  <path
     id="path_195"
     d="m 345.2751,247.58169 c 1.80845,1.80846 0.93255,0.93255 0,0 z m -224.68783,1.04995 c 1.80845,1.80845 0.93255,0.93254 0,0 z"
     fill="#a79691"
     stroke-width="1.04994" />
  <path
     id="path_253"
     d="m 70.189995,296.92902 c 0.629926,13.98805 -1.645857,28.32498 2.099886,41.99773 -28.140431,7.43995 -58.321931,24.8007 -66.8173322,54.59704 -8.1989547,25.34293 9.6334142,50.00435 29.1112222,64.51043 42.756945,32.57028 96.749739,46.56039 149.386879,52.05338 25.5652,3.02391 51.5673,2.30003 77.309,1.67134 57.38266,-3.75982 116.6972,-14.92208 165.89102,-46.48938 24.11133,-15.16744 48.18578,-40.1267 45.78907,-70.69583 -3.38744,-27.59496 -31.4487,-41.65942 -55.23856,-48.99769 -6.85822,-2.01593 -13.8449,-4.04776 -20.99886,-4.54941 2.54676,-12.39353 4.10714,-10.87785 -7.5916,-11.30175 -3.14834,19.85871 -11.24075,41.84354 -22.36118,58.5492 -9.33455,27.17011 -32.88124,46.94594 -58.24245,58.79681 41.17382,-5.65062 76.46923,-60.67063 83.99545,-91.34505 21.0823,4.35167 45.07074,10.02609 58.38839,28.34846 9.97386,15.41291 -3.73627,32.73579 -13.88235,44.06822 -102.21456,85.13259 -293.1194,73.31463 -394.848687,9.36596 -11.239792,-12.65782 -26.761281,-34.2522 -13.843942,-51.48772 11.010847,-15.95042 29.051523,-25.57542 47.10376,-31.34487 12.866757,37.17342 39.595189,70.25262 75.070939,87.90334 2.31294,-1.995 -10.94084,-7.59127 -14.17424,-11.11154 C 123.07428,420.23694 108.44957,408.22255 102.3592,391.4827 104.48313,388.76109 94.881802,380.02101 91.976315,372.52493 78.855769,349.74309 75.03431,323.22917 70.948054,297.74588 Z"
     fill="#bbced3"
     stroke-width="1.04994"
     sodipodi:nodetypes="ccccccccccccccccccccccccc" />
  <path
     id="path_255"
     d="m 392.52254,355.72584 c -11.61095,47.00009 -52.9146,84.18762 -99.67303,96.08463 -25.95794,8.69027 -52.51528,9.94878 -79.60246,8.14038 -28.81623,-2.72109 -56.32325,-11.95325 -80.06047,-28.48316 -26.74465,-18.75256 -46.217348,-46.5613 -57.746869,-76.7918 -21.268277,6.03319 -44.592521,18.65802 -52.059332,40.94779 -4.033753,54.61247 91.596391,82.66236 133.954901,89.65359 55.06789,8.76581 123.33906,7.49908 172.19067,-3.47111 36.30417,-7.72716 158.10597,-59.91085 118.3284,-103.02924 -14.74583,-13.87253 -35.78343,-19.84783 -55.33181,-23.05108 z"
     fill="#e0e0e0"
     stroke-width="1.04994"
     sodipodi:nodetypes="cccccccccc" />
  <path
     id="path_259"
     d="m 366.72268,388.62688 c -25.239,35.35724 -71.86044,51.22099 -113.53289,54.88575 -24.64979,3.20803 -48.92329,0.36748 -73.09511,-5.06211 -29.28828,-7.56528 -59.66752,-27.71314 -79.04618,-51.06092 20.56052,60.68192 97.11068,78.57432 150.78166,73.33055 45.36479,-4.70579 103.34036,-25.75429 114.89252,-72.09327 z"
     fill="#6aa5ac"
     stroke-width="1.04994"
     sodipodi:nodetypes="cccccc" />
  <path
     id="path-6"
     d="m 335.91409,14.700123 c 6.07897,8.502195 9.15,22.200031 -1.5216,28.596598 -15.58423,5.865427 -32.8143,4.136152 -49.13816,6.080236 -29.96753,2.843494 -64.81903,9.675727 -81.48748,37.769244 -5.63461,8.925651 -7.22003,19.092029 -8.76662,29.392259 -0.0139,0.002 -0.0272,0.004 -0.041,0.006 -0.0524,15.85132 2.979,29.86689 9.47205,43.36757 l -0.1497,0.004 c 8.96426,13.26214 19.47407,29.82765 35.82521,35.98515 11.44228,2.55751 10.86708,-12.15059 10.95673,-20.16423 -0.34864,-14.02186 1.12636,-23.57721 8.28676,-32.41085 -10e-4,-1.7e-4 -1.71324,3.22401 -0.004,0 1.70914,-3.22401 6.50044,-8.8905 11.20896,-13.74564 4.70853,-4.85513 13.2203,-8.82457 20.4821,-11.60064 7.26179,-2.77607 72.30554,-24.481806 85.15408,-42.383252 C 390.22515,49.263295 375.5393,12.278315 348.25104,1.2249125 338.85552,-2.7730205 332.81972,9.4121181 335.9142,14.699865 Z"
     sodipodi:nodetypes="ccccccccccczzzccc"
     style="fill:#b9cdd5;fill-opacity:0.632035;stroke-width:1.04994" />
</svg>
