<?xml version="1.0" encoding="UTF-8" standalone="no"?>
<svg
   viewBox="0 0 236 236"
   id="vector"
   version="1.1"
   sodipodi:docname="footstr.svg"
   inkscape:version="1.2.2 (b0a84865, 2022-12-01)"
   xmlns:inkscape="http://www.inkscape.org/namespaces/inkscape"
   xmlns:sodipodi="http://sodipodi.sourceforge.net/DTD/sodipodi-0.dtd"
   xmlns="http://www.w3.org/2000/svg"
   xmlns:svg="http://www.w3.org/2000/svg">
  <defs
     id="defs855" />
  <sodipodi:namedview
     id="namedview853"
     pagecolor="#ffffff"
     bordercolor="#000000"
     borderopacity="0.25"
     inkscape:showpageshadow="2"
     inkscape:pageopacity="0.0"
     inkscape:pagecheckerboard="0"
     inkscape:deskcolor="#d1d1d1"
     showgrid="false"
     inkscape:zoom="3.077113"
     inkscape:cx="36.722733"
     inkscape:cy="82.057435"
     inkscape:window-width="2111"
     inkscape:window-height="1205"
     inkscape:window-x="0"
     inkscape:window-y="25"
     inkscape:window-maximized="0"
     inkscape:current-layer="vector" />
  <path
     id="path"
     d="M 172.02415,18.470294 184.0521,17.337428 C 183.46273,10.976387 181.09464,5.5024373 177.46942,0.06921335 M 192.47167,156.67991 c 15.5856,0.84139 18.53887,6.43869 27.81342,-9.06293 8.36424,-13.97729 2.98775,-28.30011 6.50111,-43.04889 1.28219,-5.383382 3.71544,-10.250173 4.06304,-15.860124 0.33438,-5.423028 -1.49387,-10.524322 -2.08924,-15.860119 -0.56412,-5.044651 -0.37648,-10.678392 -5.27306,-14.038472 -5.43783,-3.732792 -9.84006,1.109076 -10.43665,6.109545 -0.58216,4.873588 0.22613,9.842337 -0.25619,14.726121 -0.42219,4.273169 -1.94252,8.12378 -2.04957,12.461522 -0.0842,3.439381 -1.44095,8.999487 -6.24492,8.999487 -8.64087,0 -6.69234,-13.223943 -7.85305,-18.062412 -2.12413,-8.856744 -5.55209,-16.82872 -6.3712,-26.055911 -0.60501,-6.810789 1.68392,-13.506025 0.77099,-20.391582 -0.61823,-4.662876 -2.97571,-11.244825 -8.24876,-12.861425 -7.26969,-2.228346 -10.63873,5.206651 -10.75058,10.595693 -0.11908,5.818398 2.05798,11.230098 2.33582,16.992986 0.44504,9.246449 1.17513,18.806703 1.32187,27.998775 0.0505,3.17429 -1.30142,6.191111 -1.09694,9.386925 0.3043,4.758036 7.30216,11.044308 3.84172,15.447761 -4.17971,5.31653 -10.19609,-0.53812 -12.80254,-4.12137 -5.1624,-7.098536 -8.57594,-15.31861 -13.30412,-22.634656 -2.22397,-3.438248 -5.69283,-6.276076 -10.26225,-5.172665 -12.21318,2.947717 -2.33583,18.130383 1.64783,23.276991 10.46793,13.52642 19.59112,27.62493 30.78433,40.78317 6.22928,7.32171 15.1011,11.07716 17.95894,20.39158 m 25.2587,-125.748094 c 1.05003,7.343236 2.40558,14.050933 2.40558,21.524448 l 9.62236,3.398597 c -0.44022,-9.51154 -3.83932,-18.966437 -12.02794,-24.923045 m -80.58727,15.86012 c -4.54536,7.60606 -6.26897,16.446944 -3.60839,24.923045 3.2283,-1.535033 6.07051,-2.759661 9.62236,-3.398597 -1.06447,-6.785866 -3.04667,-15.301617 -6.01397,-21.524448 m -78.181677,1.132865 c -1.516724,6.904817 -3.734679,13.678221 -6.013975,20.391583 L 66.178193,69.44925 C 63.783429,62.513846 62.590256,54.306234 58.961423,47.924801 M 45.730679,207.65887 c 2.619687,-8.54634 8.777997,-9.62257 13.923554,-15.98361 8.239146,-10.18672 17.115773,-20.0891 25.0025,-30.46389 3.560273,-4.68553 6.035625,-10.01113 9.622359,-14.72725 3.915098,-5.14661 14.260338,-20.37346 1.902823,-23.27699 -4.613922,-1.08416 -8.062336,1.69476 -10.322387,5.17266 -4.740215,7.29226 -8.192237,15.57237 -13.305319,22.63466 -2.521058,3.48243 -7.66902,8.81709 -11.941348,4.29809 -4.307209,-4.55525 2.592023,-10.65007 3.010596,-15.62562 0.276643,-3.27511 -1.021173,-6.31459 -1.065676,-9.54326 -0.179217,-12.86255 1.33871,-26.46487 3.259574,-39.169962 0.915326,-6.054035 -0.08539,-19.425248 -10.412597,-16.260022 -5.273053,1.6166 -7.629329,8.197417 -8.248767,12.861425 -0.810685,6.116341 1.065676,12.084278 0.589369,18.125849 -0.79625,10.10743 -4.172496,18.64244 -6.356771,28.32165 -1.105369,4.89624 1.127019,17.89134 -7.685861,17.89134 -5.484745,0 -6.349554,-6.21376 -6.356771,-9.96128 -0.0072,-4.01828 -1.954542,-7.39875 -2.286514,-11.32866 -0.412558,-4.87019 0.608615,-9.82988 0.152755,-14.72612 -0.436614,-4.68893 -4.809977,-9.93524 -10.2851,-6.76208 -5.149166,2.98624 -4.938676,9.80609 -5.484745,14.691 -0.552082,4.94496 -2.2408073,9.7132 -2.1361645,14.72726 0.1166711,5.62128 2.2720805,10.53338 3.8020355,15.86012 4.38058,15.24271 -1.812612,29.58705 7.009889,44.18176 2.410402,3.98769 5.784241,9.17735 10.774638,10.53905 4.794341,1.30959 11.712818,-1.43534 16.837928,-1.47612 M 19.269189,81.910772 C 12.507075,89.00591 8.660536,97.250906 8.444033,106.83382 c 3.191015,-1.40815 6.204017,-2.592 9.62236,-3.3986 0,-6.501516 3.111631,-15.605225 1.202796,-21.524448 m 80.587261,15.86012 c -0.33077,7.132518 -3.12125,13.511688 -4.811177,20.391588 3.414737,1.23029 6.451797,2.81857 9.622357,4.53146 2.54632,-8.11245 1.76571,-18.72174 -4.81118,-24.923048 m 92.74512,69.945398 c -12.84585,5.1704 -0.97547,22.18604 10.58339,17.445 14.94834,-6.13107 2.89633,-22.8703 -10.58339,-17.445 m -9.75227,20.68386 c 0,7.66497 -0.5653,15.04219 -1.20278,22.65731 5.29349,-5.30747 10.00123,-12.12846 14.43353,-18.12585 -4.67526,-1.02184 -8.89226,-2.61352 -13.23075,-4.53146 M 34.911537,218.45847 c -13.565121,3.1641 -4.321643,20.76996 7.210757,17.98878 7.880713,-1.89982 12.631752,-11.13607 5.510003,-16.77661 -3.211462,-2.54215 -8.91271,-2.10033 -12.72076,-1.21217"
     fill="#e102c2"
     stroke-width="1.16731"
     sodipodi:nodetypes="ccccccccccccsccsccccccccccccccccccccccccccccccccccsccccsccccccccccccccccccccccccccccc" />
</svg>
