<?xml version="1.0" encoding="UTF-8" standalone="no"?>
<svg
   viewBox="0 0 128 128"
   id="vector"
   version="1.1"
   sodipodi:docname="grownostr.svg"
   inkscape:version="1.2.2 (b0a84865, 2022-12-01)"
   xmlns:inkscape="http://www.inkscape.org/namespaces/inkscape"
   xmlns:sodipodi="http://sodipodi.sourceforge.net/DTD/sodipodi-0.dtd"
   xmlns="http://www.w3.org/2000/svg"
   xmlns:svg="http://www.w3.org/2000/svg">
  <defs
     id="defs681" />
  <sodipodi:namedview
     id="namedview679"
     pagecolor="#ffffff"
     bordercolor="#000000"
     borderopacity="0.25"
     inkscape:showpageshadow="2"
     inkscape:pageopacity="0.0"
     inkscape:pagecheckerboard="0"
     inkscape:deskcolor="#d1d1d1"
     showgrid="false"
     inkscape:zoom="5.6734271"
     inkscape:cx="85.398119"
     inkscape:cy="54.376305"
     inkscape:window-width="2220"
     inkscape:window-height="1205"
     inkscape:window-x="0"
     inkscape:window-y="25"
     inkscape:window-maximized="0"
     inkscape:current-layer="vector" />
  <path
     id="path_1"
     d="M 9.2237444,0.4855187 C 32.034659,17.549714 41.727103,30.892033 55.971957,46.502328 58.126799,41.354513 55.870239,32.947005 54.169179,27.761995 47.607946,7.7608978 28.730145,0.49791601 9.2237444,0.4855187 Z"
     fill="#6200ee"
     stroke-width="1.23984"
     sodipodi:nodetypes="cccc" />
  <path
     id="path_5"
     d="M 71.434272,71.774094 C 80.152316,58.929793 119.82981,33.375586 120.80933,24.042475 99.670061,24.478899 79.223862,31.772877 72.714704,53.798632 c -1.569637,5.311473 -1.279192,12.49413 -1.280432,17.975462 z"
     fill="#6200ee"
     stroke-width="1.23984"
     sodipodi:nodetypes="cccc" />
  <path
     id="path_7"
     d="M 106.89705,34.150731 C 85.728341,55.379358 83.294009,51.880421 72.930546,73.417535 99.005618,72.29548 124.09579,52.447797 120.96023,24.204246 c -6.39101,2.873927 -10.26101,5.063861 -14.06318,9.946485 z"
     fill="#3700b3"
     stroke-width="1.23984"
     sodipodi:nodetypes="cccc" />
  <path
     id="path"
     d="M 8.7529192,0.4855187 C 9.9915193,16.18313 11.869563,33.641315 26.581503,42.190012 c 8.310646,4.827935 17.999994,6.140926 27.276476,7.8891 C 51.373073,34.847608 52.380816,36.195214 23.789146,11.482306 19.470095,7.8344807 15.869245,4.3525579 8.7529192,0.4855187 Z"
     fill="#3700b3"
     stroke-width="1.23984"
     sodipodi:nodetypes="ccccc" />
  <path
     id="path_2"
     d="m 32.780702,4.2050373 1.23984,1.23984 z"
     fill="#818181"
     stroke-width="1.23984" />
  <path
     id="path_3"
     d="m 21.622143,10.404237 c 1.727097,1.77793 2.768563,2.535472 4.95936,3.71952 -2.997933,0.895163 -5.544564,1.175368 -8.678879,1.239839 v 3.71952 c 12.328967,0 18.716622,3.24714 26.036637,13.638238 h -8.67888 v 3.71952 c 3.973687,0.0037 8.635485,-0.582725 11.990491,1.987463 5.094503,3.903015 6.27607,10.830001 7.860585,16.610135 4.071635,14.857 6.185562,30.480222 6.185562,45.874078 0,7.10056 -12.142771,35.84811 4.959358,24.79679 2.201074,-11.68571 -0.793194,-24.10141 -0.550488,-34.715513 3.591321,-12.145615 10.481827,-24.099246 19.148086,-30.583129 4.708912,-1.594435 11.079209,2.020939 12.398399,-4.132386 L 84.853975,57.51815 C 92.594296,48.012298 98.343432,42.674788 110.89062,42.640072 v -2.479678 h -8.67889 l 4.95936,-6.1992 C 99.438212,34.304629 94.621434,42.099502 88.573495,46.359592 88.311889,42.963672 88.199063,42.11686 84.853975,41.400233 84.4658,54.132593 72.010668,71.537156 63.776697,79.835268 63.68247,68.402705 61.36025,55.477375 56.361216,45.119752 53.376921,38.936672 48.970531,33.724384 45.693634,27.761995 c -1.764292,-3.211186 -2.344537,-6.790604 -4.234053,-9.918719 -0.84929,1.54732 -0.928641,1.919272 -1.23984,3.719519 C 34.743368,17.11797 28.995471,10.14263 21.622143,10.404237 Z"
     fill="#35b458"
     stroke-width="1.23984"
     sodipodi:nodetypes="cccccccccsccccccccccccccccc" />
  <path
     id="path_4"
     d="m 42.699421,10.404237 1.23984,1.23984 z"
     fill="#818181"
     stroke-width="1.23984" />
  <path
     id="path_6"
     d="m 103.45157,25.282315 1.23984,1.23984 z"
     fill="#818181"
     stroke-width="1.23984" />
  <path
     id="path_8"
     d="m 12.943264,27.761995 1.23984,1.239839 -1.23984,-1.239839 m 76.870071,2.479679 1.23984,1.23984 z"
     fill="#01ff01"
     stroke-width="1.23984" />
  <path
     id="path_9"
     d="m 73.695417,48.839272 1.23984,1.23984 z"
     fill="#818181"
     stroke-width="1.23984" />
  <path
     id="path_10"
     d="m 0.08064685,127.8813 c 9.28878715,0 23.30736215,0.004 33.05793515,-0.19174 18.283652,-0.21966 37.954981,-11.48638 49.607023,-18.06006 -6.533287,-6.66089 -21.684854,-9.693089 -28.932735,-6.42159 -6.338502,4.41148 -16.531072,6.01457 -23.401073,9.18674 -10.617994,8.43313 -25.2028561,8.66177 -30.33115015,15.48665 z"
     fill="#f99721"
     stroke-width="1.18196"
     sodipodi:nodetypes="cccccc" />
  <path
     id="path_11"
     d="m 61.96967,101.51759 1.013989,1.01399 z"
     fill="#857f2d"
     stroke-width="1.01399" />
  <path
     id="path_12"
     d="m 51.829781,105.57355 1.013988,1.01398 -1.013988,-1.01398 m 23.321745,0 1.013988,1.01398 z"
     fill="#ffff01"
     stroke-width="1.01399" />
  <path
     id="path_13"
     d="m 31.334105,127.8813 h 96.756805 c -5.64836,-7.80264 -12.97803,-6.39827 -22.03672,-10.16321 -9.515816,-3.95557 -14.556986,-9.59132 -27.042819,-7.55117 -9.57051,1.56357 -14.283549,7.55523 -22.674747,10.00502 -9.678485,2.827 -17.396593,1.07585 -25.002519,7.70936 z"
     fill="#df7f07"
     stroke-width="1.19243" />
</svg>
