<?xml version="1.0" encoding="UTF-8" standalone="no"?>
<svg
   viewBox="0 0 512 512"
   id="vector"
   version="1.1"
   sodipodi:docname="lightning.svg"
   inkscape:version="1.2.2 (b0a84865, 2022-12-01)"
   xmlns:inkscape="http://www.inkscape.org/namespaces/inkscape"
   xmlns:sodipodi="http://sodipodi.sourceforge.net/DTD/sodipodi-0.dtd"
   xmlns="http://www.w3.org/2000/svg"
   xmlns:svg="http://www.w3.org/2000/svg">
  <defs
     id="defs674" />
  <sodipodi:namedview
     id="namedview672"
     pagecolor="#ffffff"
     bordercolor="#000000"
     borderopacity="0.25"
     inkscape:showpageshadow="2"
     inkscape:pageopacity="0.0"
     inkscape:pagecheckerboard="0"
     inkscape:deskcolor="#d1d1d1"
     showgrid="false"
     inkscape:zoom="1.0029297"
     inkscape:cx="-0.49853943"
     inkscape:cy="214.8705"
     inkscape:window-width="2060"
     inkscape:window-height="1205"
     inkscape:window-x="0"
     inkscape:window-y="25"
     inkscape:window-maximized="0"
     inkscape:current-layer="vector" />
  <path
     id="path-5"
     d="M 405.81445,0.31831361 C 398.493,10.85077 392.36652,18.664644 387.20676,28.095176 347.3657,84.635325 306.06563,140.11985 265.20329,195.9186 c -6.71718,6.20537 -2.23229,18.18124 7.30295,15.63372 15.68233,3.42001 21.45323,-10.42181 21.45323,-10.42181 0,0 77.8926,-124.005674 115.84092,-186.586317 2.58864,-5.5245994 4.2398,-14.79750939 -3.98594,-14.22587939 z"
     fill="#feb804"
     stroke-width="1.04238"
     sodipodi:nodetypes="ccccccc" />
  <path
     id="path_1-5"
     d="m 134.10611,269.92824 84.14549,-1.04292 23.28024,8.33906 -22.13726,38.78561 -109.76579,188.45478 3.58639,0.31649 279.74126,-251.78492 45.05184,-42.48439 -136.7757,0.47855 -35.2831,-0.66762 L 406.12829,0.16809361 c 0,0 -223.08053,181.66117639 -329.736812,270.14529639 l -1.0502,0.83706 z"
     fill="#9c59ff"
     stroke-width="1.04238"
     sodipodi:nodetypes="cccccccccccccc"
     style="fill:#ffc927;fill-opacity:1" />
  <path
     id="path_3-8"
     d="m 109.65805,504.46358 c 0.64061,10.48162 14.13638,7.31638 18.77656,1.42755 110.1127,-98.51795 227.41817,-195.82691 322.37445,-283.08288 2.86444,-9.81531 -3.78744,-12.45114 -12.85056,-12.16596 -78.49639,71.80796 -160.71601,147.92678 -240.44129,218.40902 -26.96973,23.78063 -53.63946,47.90088 -80.5604,71.72954 -2.15729,1.69656 -4.60118,3.11202 -7.29876,3.68273 z M 233.74224,290.7383 c 6.73081,-10.6791 15.6068,-23.14334 -0.0418,-21.83317 -52.45239,-0.003 -100.96424,0.7874 -149.965912,2.25621 -7.98804,-0.0118 -8.92452,-2.34808 -12.91421,9.05975 -4.90842,14.03476 13.17723,11.66441 21.96802,11.59663 42.699552,-0.17031 85.448122,0.62752 128.072102,-1.04238 4.99614,-0.006 7.7136,-0.11032 12.88181,-0.037 z"
     fill="#feb804"
     stroke-width="1.04238"
     sodipodi:nodetypes="ccccccccccscccc" />
  <path
     id="path_2"
     d="m 295.999,97.743 c -8.58221,4.87074 -15.2571,12.4467 -22.999,18.528 -35.75709,30.89745 -71.35723,61.98137 -107.63143,92.27521 C 151.57082,220.66658 137.0638,232.03089 124.044,245 c -4.42934,3.7275 -6.8535,10.68692 -2.83831,15.61242 5.43826,7.37342 15.92801,3.72704 21.79431,-1.13742 10.00901,-8.23046 19.20489,-17.3806 28.70275,-26.17857 10.02232,-9.85876 19.6138,-20.17827 30.29725,-29.33543 9.80468,-9.67014 19.29788,-19.67063 29.70713,-28.69817 9.64835,-9.59511 19.13392,-19.3613 29.35356,-28.34908 10.45777,-10.35439 20.91213,-20.7159 30.72701,-31.67833 3.9539,-4.6123 10.40544,-8.4886 10.7613,-15.08742 -0.53035,-3.162222 -4.12596,-3.243363 -6.55,-2.405 z"
     fill="#ffe567"
     stroke-width="1" />
  <path
     id="path_4"
     d="m 265,273.668 c -10.03152,4.07283 -14.75501,14.57129 -20.72621,22.92167 -7.9149,11.9982 -15.59012,24.15202 -23.68762,36.03154 -6.85301,10.39823 -13.50468,20.92573 -20.44926,31.26487 -7.0681,11.26628 -14.61065,22.2263 -21.70531,33.47587 -4.08667,6.76061 -9.1221,13.11851 -11.7506,20.63705 -1.05396,3.04157 1.14608,7.24995 4.71898,6.30689 5.83114,-1.76963 8.70391,-7.80798 12.38201,-12.1866 29.28727,-39.12772 58.73092,-78.14141 87.91605,-117.34372 3.72726,-5.00317 6.10999,-12.68358 2.55996,-18.38157 -2.25033,-2.57594 -5.96303,-3.68222 -9.258,-2.726 z"
     fill="#ffd84b"
     stroke-width="1" />
  <path
     id="path_5"
     d="M 276 279 L 276 285 L 276.582 283.918 L 276.628 283.502 L 276.806 282.738 L 276.806 281.262 L 276.628 280.498 L 276.582 280.082 L 276 279 Z"
     fill="#ffd84b"
     stroke-width="1" />
</svg>
