<?xml version="1.0" encoding="UTF-8" standalone="no"?>
<!-- Uploaded to: SVG Repo, www.svgrepo.com, Generator: SVG Repo Mixer Tools -->

<svg
   width="800px"
   height="800px"
   viewBox="0 0 128 128"
   aria-hidden="true"
   role="img"
   class="iconify iconify--noto"
   preserveAspectRatio="xMidYMid meet"
   version="1.1"
   id="svg2518"
   sodipodi:docname="mate-svgrepo-com.svg"
   inkscape:version="1.2.2 (b0a84865, 2022-12-01)"
   xmlns:inkscape="http://www.inkscape.org/namespaces/inkscape"
   xmlns:sodipodi="http://sodipodi.sourceforge.net/DTD/sodipodi-0.dtd"
   xmlns="http://www.w3.org/2000/svg"
   xmlns:svg="http://www.w3.org/2000/svg">
  <defs
     id="defs2522" />
  <sodipodi:namedview
     id="namedview2520"
     pagecolor="#ffffff"
     bordercolor="#000000"
     borderopacity="0.25"
     inkscape:showpageshadow="2"
     inkscape:pageopacity="0.0"
     inkscape:pagecheckerboard="0"
     inkscape:deskcolor="#d1d1d1"
     showgrid="false"
     inkscape:zoom="0.90774833"
     inkscape:cx="477.55527"
     inkscape:cy="372.90071"
     inkscape:window-width="2216"
     inkscape:window-height="1205"
     inkscape:window-x="0"
     inkscape:window-y="25"
     inkscape:window-maximized="0"
     inkscape:current-layer="svg2518" />
  <path
     d="m 31.447569,53.887317 c 0,0 -12.564323,15.5498 -11.963008,32.692558 0.601316,17.142755 10.37005,40.868335 44.856006,41.659545 C 98.826522,129.04117 112.02381,99.439581 107.20273,78.804975 102.30782,57.843337 91.652936,51.091728 91.652936,51.091728 Z"
     fill="#865c52"
     id="path2498"
     style="stroke-width:1.05494" />
  <path
     d="m 30.624717,55.0372 c 0,0 0.0844,-1.782847 0.770106,-3.945472 0.622414,-1.983285 1.793396,-3.97712 1.793396,-3.97712 24.588752,17.122455 31.54483,15.636174 56.059457,5.34854 1.192081,-0.432525 1.501865,-7.396158 1.501865,-7.396158 0,0 3.076571,3.619477 3.888873,6.604955 0.474722,1.730099 0.453624,3.755582 0.453624,3.755582 0,0 0.69626,6.160844 -11.361693,13.703658 C 71.609096,76.705646 50.035594,75.017744 39.591698,67.401084 31.584712,61.546174 30.624717,55.0372 30.624717,55.0372 Z"
     fill="#b0b0b0"
     id="path2500"
     sodipodi:nodetypes="cccccccccc"
     style="stroke-width:1.05494" />
  <path
     d="M 32.692397,49.889097 C 32.502508,58.866629 48.769667,66.546584 62.093546,66.630979 79.943115,66.736473 92.81337,58.223115 92.81337,50.078987 87.332803,24.8878 34.136574,29.553665 32.692397,49.889097 Z"
     fill="#e0e0e0"
     id="path2502"
     sodipodi:nodetypes="cccc"
     style="stroke-width:1.05494" />
  <path
     d="m 79.447293,42.188043 c -4.953827,-6.746008 -36.696056,-8.06105 -36.954513,5.591177 0.18989,7.300177 9.642143,8.302369 9.642143,8.302369 l 24.37964,-3.745033 z"
     fill="#858585"
     id="path2504"
     sodipodi:nodetypes="ccccc"
     style="stroke-width:1.05494" />
  <path
     d="m 75.470173,47.589331 c 0,0 -3.597342,-3.12262 -13.745855,-3.12262 -10.148513,0 -15.72914,3.407453 -16.203862,6.825455 -0.274284,1.972737 0.284833,2.468558 0.284833,2.468558 0,0 5.686121,4.356898 17.438141,4.167009 11.752021,-0.189889 13.461022,-2.278669 13.461022,-2.278669 z"
     fill="#96a520"
     id="path2506"
     style="stroke-width:1.05494" />
  <path
     d="m 69.594163,58.581795 c 0,0 15.824085,-30.519385 17.248252,-32.027948 C 88.266583,25.045284 111.567,0.0389414 111.567,0.0389414 l 3.59734,3.2175639 -6.53743,7.4732567 c 0,0 -17.628036,19.526921 -17.912868,20.370873 -0.284834,0.8545 -9.568297,19.801204 -9.948076,20.465815 -0.379778,0.664612 -2.088779,7.300179 -2.468556,7.395123 -0.36923,0.09494 -8.703247,-0.379778 -8.703247,-0.379778 z"
     fill="#e0e0e0"
     id="path2508"
     style="stroke-width:1.05494"
     sodipodi:nodetypes="csccccscc" />
  <path
     d="m 76.134784,56.018293 c 0,0 13.081244,-25.392381 13.8408,-26.62666 C 90.73514,28.157354 114.51028,2.6446406 114.51028,2.6446406 l 1.7934,1.5929578 c 0,0 -22.973391,25.7975476 -23.66965,26.7575416 -0.991642,1.360872 -11.92081,22.776133 -11.92081,22.776133 0,0 -1.076038,0.770106 -1.888341,1.192081 -1.476915,0.759556 -2.690095,1.054939 -2.690095,1.054939 z"
     fill="#b0b0b0"
     id="path2510"
     style="stroke-width:1.05494"
     sodipodi:nodetypes="cscccccc" />
  <path
     d="m 95.841045,15.276549 c -0.474723,-0.105493 -3.882175,3.407454 -3.692287,3.977121 0.189889,0.569666 5.485683,5.570078 6.340184,5.854911 0.8545,0.284833 3.692288,-3.312508 3.787228,-3.692286 0.0949,-0.379779 -5.580625,-5.949856 -6.435125,-6.139746 z"
     fill="#b0b0b0"
     id="path2512"
     style="stroke-width:1.05494" />
  <path
     d="m 95.651156,16.880057 c -1.149884,0 -1.582409,0.991643 -1.614057,1.993835 -0.03165,1.139334 0.474723,1.993835 1.614057,1.993835 1.139333,0 1.614056,-1.139335 1.614056,-2.08878 0,-0.949445 -0.569667,-1.89889 -1.614056,-1.89889 z"
     fill="#ffffff"
     id="path2514"
     style="stroke-width:1.05494" />
  <path
     d="m 30.761859,67.285041 c -1.434717,-0.116043 -5.939306,7.131388 -6.171393,15.286066 -0.242636,8.154678 1.856693,14.146731 3.354706,14.326072 1.983285,0.242636 3.122619,-6.350733 5.696671,-11.509385 2.552952,-5.116454 6.772708,-8.513357 6.709411,-10.074667 -0.06329,-1.56131 -3.238662,-2.879983 -5.274695,-4.557336 -2.036032,-1.666804 -3.396903,-3.386355 -4.3147,-3.47075 z"
     fill="#b78859"
     id="path2516"
     style="stroke-width:1.05494" />
</svg>
