<?xml version="1.0" encoding="UTF-8" standalone="no"?>
<!-- Created with Inkscape (http://www.inkscape.org/) -->

<svg
   width="256mm"
   height="256mm"
   viewBox="0 0 256 256"
   version="1.1"
   id="svg1669"
   xml:space="preserve"
   xmlns:inkscape="http://www.inkscape.org/namespaces/inkscape"
   xmlns:sodipodi="http://sodipodi.sourceforge.net/DTD/sodipodi-0.dtd"
   xmlns="http://www.w3.org/2000/svg"
   xmlns:svg="http://www.w3.org/2000/svg"><sodipodi:namedview
     id="namedview1671"
     pagecolor="#ffffff"
     bordercolor="#000000"
     borderopacity="0.25"
     inkscape:showpageshadow="2"
     inkscape:pageopacity="0.0"
     inkscape:pagecheckerboard="0"
     inkscape:deskcolor="#d1d1d1"
     inkscape:document-units="mm"
     showgrid="false" /><defs
     id="defs1666" /><g
     inkscape:label="Layer 1"
     inkscape:groupmode="layer"
     id="layer1"><path
       style="fill:#9d5aff;stroke:none;stroke-width:0.488346"
       d="m 59.66101,98.546932 c -3.006748,-0.988419 -5.629655,-2.704955 -8.790231,-3.204037 -9.733227,-1.536338 -20.022193,2.618022 -26.775533,9.596475 -3.488744,3.60449 -6.176113,8.37613 -7.721241,13.14141 -0.436094,1.34442 -1.365416,4.2955 0.118661,5.33713 2.358713,1.65502 8.252073,-3.37204 11.425835,-2.8954 -1.501176,3.38667 -3.09758,7.4678 -2.906636,11.23195 0.108417,2.13653 1.374207,4.42784 3.883329,3.60255 4.417091,-1.45186 6.135092,-7.22508 11.231962,-7.99766 -0.809679,2.48911 -4.208567,10.8159 -0.821398,12.63205 2.25274,1.20817 6.274271,-2.46566 8.146591,-3.45992 5.717069,-3.03654 13.491539,-5.56374 20.022192,-5.72489 4.768702,-0.11775 9.389433,4.76578 13.673694,6.59952 9.014381,3.85743 18.450208,5.8665 27.835735,8.5104 -5.54859,8.15685 -12.991477,15.02152 -20.998889,20.75814 -3.103927,2.22343 -6.979931,2.75134 -9.662905,5.65797 -3.017491,3.26947 -3.080976,8.02304 -5.478268,11.67489 -7.681686,11.70224 -15.816067,23.58467 -24.365545,34.67063 -4.329188,5.61355 -12.746322,3.90334 -16.65065,10.25918 -2.62242,4.26961 -0.247103,6.04522 3.904328,4.8815 -2.736205,4.93377 -6.406125,10.18984 -6.221531,16.11542 0.04982,1.59005 0.542553,5.75907 2.77869,5.75907 2.164351,0 4.6388,-7.04049 5.847457,-8.68914 3.137135,-4.27987 7.228012,-7.62943 10.552185,-11.72031 3.061929,-3.76759 5.290741,-8.24816 8.11094,-12.20865 8.286747,-11.63729 16.547123,-24.86121 26.626588,-35.02663 2.386059,-2.40658 6.005192,-2.90176 8.361464,-5.52711 1.994894,-2.22295 2.177535,-5.46215 4.158754,-7.56595 2.812387,-2.98575 6.829522,-5.2756 10.107302,-7.73393 7.55423,-5.6658 14.83157,-11.35356 24.4173,-13.00319 -1.823,3.39547 -3.65234,6.66103 -5.07831,10.25527 -2.05984,5.19112 -6.03498,18.04488 4.10163,17.52723 3.78664,-0.19339 6.3451,-3.143 9.76693,-4.32088 8.99191,-3.09564 18.21923,-5.85724 27.34739,-8.52995 3.82961,-1.12173 8.13731,-3.33639 12.20622,-3.1635 5.05243,0.21438 2.04372,7.86237 6.83733,9.15404 2.99259,0.80576 2.12283,-4.51769 2.44367,-6.27183 h 0.9767 c 1.79517,3.46043 5.27562,6.66788 8.79023,8.38198 1.12613,0.54938 3.40963,1.45819 4.36046,0.11333 1.26481,-1.7893 -1.48996,-5.13252 -2.40708,-6.54189 -3.30952,-5.08709 -6.9267,-14.39889 -13.18535,-16.28684 -5.5813,-1.68381 -12.34392,1.20134 -17.58046,2.93888 -10.98289,3.64404 -22.07567,7.25877 -33.20753,10.41788 3.00773,-6.43445 7.23339,-8.02402 12.10465,-12.46699 1.69748,-1.54756 2.29668,-4.40438 4.54454,-5.30734 3.9512,-1.58664 10.78658,-0.52985 15.0933,-0.82678 7.66119,-0.52789 15.19931,-2.59849 21.97558,-6.19808 8.97239,-4.76577 13.78163,-12.65939 14.99908,-22.57038 0.41998,-3.42037 -1.0939,-8.66816 0.70322,-11.69393 2.71324,-4.56751 11.30179,-7.60063 15.55187,-10.833484 9.87143,-7.509783 17.98335,-19.994853 18.53811,-32.655721 0.46784,-10.68355 -3.26216,-19.678877 -11.23197,-26.859033 -4.1529,-3.741234 -13.68638,-8.054787 -14.51072,-14.161566 -0.46929,-3.475062 3.1933,-4.010782 5.73954,-4.741834 6.56825,-1.885511 13.61802,0.286179 20.02218,-1.60714 v -0.976698 l -6.83683,-2.930078 6.83683,-0.48834 V 12.598028 C 234.76536,10.282778 229.42284,9.5986074 224.72202,7.4615984 216.7903,3.8561362 206.39587,-5.6011743 200.733,7.226214 c -8.51383,19.28334 8.55485,30.240352 20.55155,41.592458 6.76066,6.396833 8.06797,17.65957 2.56383,25.310495 -6.53651,9.08714 -14.68408,6.861253 -24.03202,6.875908 -2.62778,0.0037 -5.2121,1.652091 -7.81353,1.215984 -3.82667,-0.641183 -7.49171,-3.96782 -10.74361,-5.918763 -5.15548,-3.093183 -10.67868,-5.644795 -16.60378,-6.836834 -15.82046,-3.183051 -32.06773,-0.627046 -46.88124,5.373752 -9.52569,3.858916 -18.320798,9.347443 -27.835733,13.231756 -7.302241,2.980853 -15.150453,3.639146 -22.952271,3.639146 -2.100377,0 -7.821841,-0.993291 -9.262951,0.85071 -1.387391,1.776116 0.990366,4.574335 1.937758,5.986143 z"
       id="path1836" /></g></svg>
