<?xml version="1.0" encoding="UTF-8" standalone="no"?>
<svg
   viewBox="0 0 512 512"
   id="vector"
   version="1.1"
   sodipodi:docname="plebs.svg"
   inkscape:version="1.2.2 (b0a84865, 2022-12-01)"
   xmlns:inkscape="http://www.inkscape.org/namespaces/inkscape"
   xmlns:sodipodi="http://sodipodi.sourceforge.net/DTD/sodipodi-0.dtd"
   xmlns="http://www.w3.org/2000/svg"
   xmlns:svg="http://www.w3.org/2000/svg">
  <defs
     id="defs6080" />
  <sodipodi:namedview
     id="namedview6078"
     pagecolor="#ffffff"
     bordercolor="#000000"
     borderopacity="0.25"
     inkscape:showpageshadow="2"
     inkscape:pageopacity="0.0"
     inkscape:pagecheckerboard="0"
     inkscape:deskcolor="#d1d1d1"
     showgrid="false"
     inkscape:zoom="1.4183568"
     inkscape:cx="156.16663"
     inkscape:cy="245.00183"
     inkscape:window-width="2152"
     inkscape:window-height="1205"
     inkscape:window-x="0"
     inkscape:window-y="25"
     inkscape:window-maximized="0"
     inkscape:current-layer="vector" />
  <path
     id="path"
     d="m 240.0765,212.38966 c 36.86849,-40.1775 42.77561,-59.0498 41.12716,-100.89988 C 277.00266,50.196786 219.6575,-13.101338 154.4735,3.2696624 98.990632,29.165669 78.405941,76.672662 87.059496,130.37466 c 3.326,19.783 11.266,38.916 23.309004,55 3.8,5.075 7.79,10.561 13.105,14.15 29.58263,11.54698 63.26846,28.18001 92,32.55 49.40295,5.05532 16.31686,4.0658 24.603,-19.685 z"
     fill="#226699"
     stroke-width="1"
     sodipodi:nodetypes="cccccccc" />
  <path
     id="path_1"
     d="m 267.4735,229.37466 c -25.72381,6.1265 -53.17535,4.35929 -76,-3.344 -20.816,-7.201 -41.714,-15.31 -62,-23.887 -13.664,-5.778 -26.841,-12.787 -42.000004,-12.769 -10.835,0.013 -25.743,2.166 -33.787,10.213 -12.713,12.718 -10.628,39.822 0.116,52.786 7.998,9.651 20.694,14.759 31.671,20.248 23.899004,11.95 48.700004,21.898 73.000004,32.984 10.316,4.706 26.02,8.833 33.387,17.874 8.391,10.296 7.93992,31.97216 8.20292,44.71516 9.824,0 21.74808,-2.38816 31.41008,-4.33416 25.64,-5.163 48.792,-18.568 71,-31.886 19.64,-11.777 43.51,-31.471 68,-22.638 21.493,7.752 29.192,33.234 20.099,53.038 -4.477,9.75 -12.742,16.526 -21.099,22.87 -47.953,36.402 -106.388,61.13 -167,61.13 v 44 c 0.57244,13.76292 -3.2865,20.24858 13,21.83 77.69664,0.65639 162.38954,0.17 231,0.17 8.367,0 21.25,2.254 22.811,-9 2.183,-15.737 0.189,-33.106 0.189,-49 -0.45394,-63.00555 -2.27318,-108.36635 -12.6,-160 -2.129,-10.578 -4.935,-21.419 -13.44,-28.848 -6.41,-5.599 -18.729,2.108 -25.96,4.103 -19.393,5.349 -53.736,8.081 -62.79,-15.255 -9.333,-24.054 13.943,-39.798 28.789,-54.039 33.42039,-27.8835 43.85955,-89.35613 34.576,-125.960998 -19.60038,-76.1437472 -102.28639,-105.0412 -163.006,-34 -2.71,5.553 4.587,12.392 7.119,17 7.798,14.19 12.877,29.076 15.697,44.999998 4.022,22.71 0.21,46.903 -8.812,68 -1.20199,8.80441 -13.79174,19.12237 -14.666,26 -0.543,5.907 8.62,9.855 11.49,14.09 3.233,4.77 1.603,13.383 1.603,18.91 z"
     fill="#55acee"
     stroke-width="1"
     sodipodi:nodetypes="ccccccccccccscccccccccsccccccccccc" />
  <path
     id="path_18"
     d="m 359.6585,263.18966 c 19.0577,20.65789 79.63255,9.7918 95.853,-13.816 8.684,-13.517 9.701,-39.101 -3.132,-50.67 -38.37681,-27.48998 -128.2246,26.09057 -92.721,64.486 z"
     fill="#226699"
     stroke-width="1"
     sodipodi:nodetypes="cccc" />
  <path
     id="path_35"
     d="m 202.9305,505.35966 c 0.59203,-18.53342 -1.13755,-37.92474 -0.75196,-57.16484 14.334,0 28.11096,-2.78016 42.29496,-5.14416 44.725,-7.454 88.978,-29.993 125,-57.051 8.087,-6.074 16.01,-12.398 20.623,-21.625 9.25,-18.499 3.946,-45.809 -16.623,-54.07 -19.995,-8.031 -39.101,1.93 -56,12.07 -23.173,13.905 -46.408,28.636 -72,37.691 -10.6362,2.61805 -32.57686,8.46435 -41.852,4.706 -3.52283,-16.69358 -3.29681,-31.79524 -11.761,-42.184 -24.6698,-17.17164 -70.54136,-35.83613 -115.387004,-54.994 -2.592,-1.367 -5.913,-4.179 -9,-3.967 -4.748,0.327 -8.884,7.105 -11.07,10.748 -22.390712,67.40097 -18.924911,158.86416 -18.93,219 0.219191,13.62316 -0.386299,18.98432 15,19 h 30 c 23.684764,-4.02527 130.219624,11.24924 120.457004,-7.015 z"
     fill="#226699"
     stroke-width="1"
     sodipodi:nodetypes="ccccccccccccccccc" />
</svg>
