<?xml version="1.0" encoding="UTF-8" standalone="no"?>
<svg
   viewBox="0 0 521 521"
   id="vector"
   version="1.1"
   sodipodi:docname="skull.svg"
   inkscape:version="1.2.2 (b0a84865, 2022-12-01)"
   width="521"
   height="521"
   xmlns:inkscape="http://www.inkscape.org/namespaces/inkscape"
   xmlns:sodipodi="http://sodipodi.sourceforge.net/DTD/sodipodi-0.dtd"
   xmlns="http://www.w3.org/2000/svg"
   xmlns:svg="http://www.w3.org/2000/svg">
  <defs
     id="defs1330" />
  <sodipodi:namedview
     id="namedview1328"
     pagecolor="#ffffff"
     bordercolor="#000000"
     borderopacity="0.25"
     inkscape:showpageshadow="2"
     inkscape:pageopacity="0.0"
     inkscape:pagecheckerboard="0"
     inkscape:deskcolor="#d1d1d1"
     showgrid="false"
     inkscape:zoom="0.98560461"
     inkscape:cx="92.836417"
     inkscape:cy="270.39241"
     inkscape:window-width="1718"
     inkscape:window-height="1205"
     inkscape:window-x="262"
     inkscape:window-y="25"
     inkscape:window-maximized="0"
     inkscape:current-layer="vector" />
  <path
     id="path"
     d="m 166.04346,80.016661 c -17.5893,-6.802698 -44.53159,4.017214 -36.94372,26.702839 2.10166,23.62629 5.9681,47.16598 3.46595,70.98619 -2.73599,24.01821 -32.14447,35.56293 -36.127743,61.12122 -17.979904,47.59218 -10.436679,101.14032 7.339713,147.58812 -5.494327,19.92946 -10.791213,48.40904 11.26699,61.19028 17.72524,13.07604 40.748,11.29299 60.4052,18.03861 20.50404,12.31727 -10.44013,42.98919 15.69108,51.94516 18.09542,2.85394 17.82678,3.6645 56.45534,3.82984 23.28533,0.37095 51.13729,0.26383 66.03133,-3.17835 17.84973,-3.73841 39.29887,-7.90373 29.22654,-32.48136 0.75192,-28.56618 30.29305,-42.61677 54.41725,-48.43896 24.03906,-0.97555 29.12264,-26.78816 19.49394,-44.69648 -5.31967,-21.48059 6.11696,-42.35708 4.25274,-64.14691 9.21892,-22.32125 5.23391,-47.01108 3.78551,-70.4041 -3.11949,-31.07226 -19.98807,-60.88473 -47.91121,-76.09108 -19.15995,-14.76901 -41.79493,-26.32005 -51.9464,-49.91928 -13.21127,-19.22976 -10.24377,-46.183202 -25.2302,-63.731604 -12.87702,-9.25791 -34.32975,6.800751 -32.65156,-16.297618 -4.23777,-18.496939 -22.61888,-63.826649 -43.89471,-35.804892 -0.79845,10.205312 6.99699,46.603466 -3.08902,20.067361 -8.91358,-17.606693 -6.23873,-23.899619 -23.01086,-35.8657963 -33.28707,-3.665015 -17.66063,22.1574153 -29.24829,36.9099883 -11.19831,9.77664 -1.80051,29.625325 -1.77787,42.676822 z"
     fill="#100f0f"
     stroke-width="1.04573"
     sodipodi:nodetypes="cccccccccccccccccccccccc" />
  <path
     id="path_2"
     d="m 197.4153,67.467923 c 10.40424,-9.938245 32.5026,-7.129346 19.03232,-25.223732 -10.22854,-16.227222 -7.14945,-34.882441 -28.12279,-37.02428 -13.71003,16.666008 -8.25562,27.408795 3.86427,41.459066 2.33258,6.769161 3.63538,13.825055 5.2262,20.788946 z"
     fill="#29b34a"
     stroke-width="1.04573"
     sodipodi:nodetypes="ccccc" />
  <path
     id="path_33"
     d="m 253.88463,115.57142 c 2.50646,-17.59841 -3.28296,-35.978444 9.78432,-50.51359 -6.67902,-17.003282 -8.3737,-38.331221 -21.77618,-51.310714 -23.22216,-3.056734 -6.86507,32.180488 -7.33947,44.92205 15.50265,13.028649 12.39881,35.877734 18.81969,53.612174 z"
     fill="#136c37"
     stroke-width="1.04573" />
  <path
     id="path_65"
     d="m 169.18399,49.392472 c -0.97431,1.10087 -1.70435,6.811425 6.66927,43.022751 6.05627,18.193247 12.64197,46.964797 24.44816,57.301727 2.52983,-36.48243 -3.51103,-73.17827 -18.59932,-106.115603 -2.68322,-5.85741 -9.2413,2.216342 -12.51811,5.791125 z"
     fill="#136c37"
     stroke-width="1.04573"
     sodipodi:nodetypes="cccsc" />
  <path
     id="path_107"
     d="m 204.7354,104.06841 c 0.62478,-7.84191 3.92741,-37.846265 6.89853,-19.429499 -3.32364,23.586509 -5.04983,47.143629 -4.76696,71.229139 -0.84181,28.44197 -19.71715,-11.41824 -22.98509,-22.25015 -10.16904,-15.42017 -5.61388,-50.819843 -31.30115,-48.374661 -28.19343,-1.432521 -14.51626,32.270351 -14.94971,49.151291 3.37653,16.60458 -2.99322,44.19696 2.45993,54.00856 15.80498,-3.46049 -17.13584,24.03218 -21.73883,34.01222 -27.954342,42.52615 -22.507018,97.33849 -10.08893,144.2332 1.33658,14.75752 3.42528,18.52233 17.29866,14.77506 -10.15389,11.18601 -29.781593,28.98531 -13.96005,47.86213 14.78072,25.26697 46.30937,12.62651 66.71052,26.5545 16.95764,5.17522 5.16972,30.13807 22.72301,23.08867 9.80276,7.155 9.20776,22.00758 19.42782,5.37991 19.77044,-21.95419 28.47181,35.56266 35.95955,6.99028 4.72338,-20.49969 27.271,-14.17524 31.97096,2.82597 3.47754,-14.2089 17.35331,-16.83302 26.1432,-5.22864 9.61158,-16.09581 27.49161,-17.17856 35.90338,-35.21123 12.95527,-16.2573 34.62056,-16.62699 51.5154,-25.79089 17.6186,-15.14066 3.56882,-40.18569 -5.85198,-56.11944 17.85842,12.1856 9.9801,-26.68549 16.11886,-38.69194 7.23117,-36.18674 12.76863,-76.04094 -5.90757,-109.89567 -14.86505,-32.01669 -48.57306,-51.65201 -82.97817,-54.86461 -28.39357,-9.93899 30.19546,-0.921 8.31304,-16.5571 -19.65879,-20.98257 -23.94353,-50.27481 -32.64934,-76.298812 -11.31095,-10.062075 -41.45494,-4.621208 -30.08793,9.779798 -0.1151,11.713564 -7.05622,27.874254 -5.35115,6.936042 1.89016,-16.451038 -3.84792,-11.09742 -1.64107,1.757179 -0.0745,15.923173 3.31707,46.986663 -3.50713,53.766003 -11.53537,-23.03398 -15.18269,-49.22042 -20.72502,-74.156414 -11.23594,-22.759962 -44.56731,-8.537992 -33.9691,21.585314 0.54183,2.956731 0.77035,5.94306 1.01632,8.93379 z"
     fill="#29b34a"
     stroke-width="1.04573"
     sodipodi:nodetypes="cccccccccccccccccccccccccccccccc" />
  <path
     id="path_178"
     d="m 141.99171,137.53171 c 5.43302,-6.56331 6.76819,-44.708141 -3.75927,-38.13927 -0.11321,12.71965 4.24399,25.28816 3.75927,38.13927 z"
     fill="#100f0f"
     stroke-width="1.04573" />
  <path
     id="path_291"
     d="m 190.09521,178.76269 c -23.35274,4.42894 -48.58168,19.12724 -56.05527,42.86831 -2.02448,30.08055 23.868,1.51857 32.26042,-8.59279 9.02152,-13.10375 39.16849,-19.98098 37.21058,-34.4764 -4.43363,-1.08477 -8.98449,-0.3916 -13.41573,0.20088 z"
     fill="#100f0f"
     stroke-width="1.04573" />
  <path
     id="path_299"
     d="m 137.8088,233.73871 c 18.97412,-10.81204 30.28437,-32.52342 50.83689,-42.38054 10.08127,-4.82182 18.90517,-12.5773 1.8767,-9.75175 -23.61543,5.69871 -57.71955,22.98643 -52.71359,52.13229 z"
     fill="#ffffff"
     stroke-width="1.04573" />
  <path
     id="path_453"
     d="m 176.50074,382.23212 c -10.89149,10.08424 -47.39354,-14.78058 -33.15354,10.00267 22.96305,15.30177 54.03644,2.59417 73.06147,-13.67866 25.34905,-20.63401 34.47579,-66.26201 5.3095,-87.73264 -28.86835,-23.8342 -81.68317,-12.07121 -90.90515,26.16557 -5.55805,28.61328 14.8651,63.50178 45.68772,65.24306 z"
     fill="#100f0f"
     stroke-width="1.04573" />
  <path
     id="path_458"
     d="m 380.41774,379.09493 c -10.31747,0.003 -50.26958,12.12814 -23.12088,1.30715 34.32863,-13.642 44.65923,-68.98635 10.94126,-89.15111 -29.7089,-20.5308 -81.33425,-7.61679 -88.30428,30.56672 -5.96399,36.87307 22.86882,76.7616 61.7041,76.24885 13.69331,-0.45657 36.36735,-1.57965 38.7798,-18.97161 z"
     fill="#100f0f"
     stroke-width="1.04573" />
  <path
     id="path_670"
     d="m 178.5922,317.39697 c -1.61249,19.72851 20.89461,-2.91994 0,0 z"
     fill="#ffffff"
     stroke-width="1.04573" />
  <path
     id="path_677"
     d="m 333.35997,318.44269 c -9.34551,14.8157 15.02978,7.84515 3.20172,1.02079 z"
     fill="#ffffff"
     stroke-width="1.04573" />
  <path
     id="path_755"
     d="m 182.77511,346.67736 c 19.05077,3.54068 12.90788,-18.62111 -0.32104,-6.86835 -0.44105,2.35959 -1.19824,4.03717 0.32104,6.86835 z"
     fill="#ffffff"
     stroke-width="1.04573"
     sodipodi:nodetypes="ccc" />
  <path
     id="path_777"
     d="m 328.13133,347.72308 c 18.67597,9.02876 16.71257,-14.75352 1.53423,-5.83133 l -0.71477,1.92083 z"
     fill="#ffffff"
     stroke-width="1.04573" />
  <path
     id="path_869"
     d="m 261.20472,452.29591 c -0.0104,-31.75121 -0.13112,-63.61699 -4.18291,-95.16127 -21.20992,6.71516 -22.05932,34.2727 -29.88256,51.74708 -14.99618,21.74565 1.77913,51.06205 28.50702,43.69833 l 2.75384,-0.17537 z"
     fill="#100f0f"
     stroke-width="1.04573" />
  <path
     id="path_900"
     d="m 268.52482,362.36328 c -5.53169,25.00867 1.02602,50.79127 1.09488,76.11957 2.31559,33.70922 45.42777,-4.74923 27.67066,-24.31085 -9.5892,-16.83563 -13.04742,-39.45433 -28.76554,-51.80872 z"
     fill="#100f0f"
     stroke-width="1.04573" />
  <path
     id="path_468"
     d="m 185.91229,282.88794 c 2.8121,7.36388 -1.00887,19.98511 6.79832,23.38989 13.4035,7.92378 5.00905,23.18801 18.01693,31.42778 3.2864,15.5902 -20.20914,16.4036 -9.52216,32.47137 10.7898,11.43274 33.59827,-18.82601 33.28275,-34.77785 4.94599,-24.56043 -15.22057,-46.81938 -38.78695,-50.42325 -3.23793,-0.80802 -6.50847,-1.4783 -9.78889,-2.08794 z"
     fill="#f9a318"
     stroke-width="1.04573" />
  <path
     id="path_474"
     d="m 174.40928,283.93366 c -0.80196,9.41431 7.3565,32.46089 3.76123,10.43533 -1.91346,-2.34931 0.63581,-11.74389 -3.76123,-10.43533 z"
     fill="#f9a318"
     stroke-width="1.04573" />
  <path
     id="path_486"
     d="m 316.62832,378.0492 c 3.07462,-11.08488 3.28475,-20.16464 -2.78605,-29.21171 -1.4868,-24.50851 13.44275,-41.07354 17.42625,-62.81237 -28.08966,0.38902 -54.69847,27.46768 -46.07959,56.40225 3.61747,16.05913 15.22049,30.9847 31.43939,35.62183 z"
     fill="#f9a318"
     stroke-width="1.04573" />
  <path
     id="path_489"
     d="m 163.952,287.07085 c -20.93303,9.04049 -36.18739,32.89727 -27.18931,55.42086 6.50287,19.03646 24.51223,34.53378 44.96669,35.55749 -4.62411,-20.37847 -19.12757,-36.54878 -18.62406,-60.58427 2.35117,-10.49477 8.58949,-19.62962 0.84668,-30.39408 z"
     fill="#f9a318"
     stroke-width="1.04573" />
  <path
     id="path_497"
     d="m 340.68007,287.07085 c -4.45661,8.03515 -2.16829,32.41383 0.12209,9.87089 -2.31428,-1.87935 6.21679,-11.52896 -0.12209,-9.87089 z"
     fill="#f9a318"
     stroke-width="1.04573" />
  <path
     id="path_512"
     d="m 351.13735,289.1623 c -6.29259,17.56329 7.98097,33.69077 3.61965,48.78299 15.15819,21.45665 -25.38284,21.0903 -17.21412,43.2411 35.01328,-1.12446 60.32404,-47.79841 37.82478,-75.92745 -6.39487,-7.39662 -14.85966,-13.21271 -24.23031,-16.09664 z"
     fill="#f9a318"
     stroke-width="1.04573" />
  <path
     id="path_887"
     d="m 188.00375,358.18037 c -1.68267,13.57652 8.33187,26.69529 3.2298,7.20951 -1.15097,-2.12806 0.6324,-8.44514 -3.2298,-7.20951 z"
     fill="#f9a318"
     stroke-width="1.04573" />
  <path
     id="path_903"
     d="m 329.17706,360.27182 c -4.16765,9.06746 -2.3399,32.63952 0.24914,10.42199 -0.99034,-2.22144 4.73766,-12.02782 -0.24914,-10.42199 z"
     fill="#f9a318"
     stroke-width="1.04573" />
  <path
     id="path_1165"
     d="m 318.71978,509.81096 c 27.61864,9.80971 24.30588,-50.60479 1.55114,-25.14297 -4.51471,7.61852 -2.50229,16.89031 -1.55114,25.14297 z"
     fill="#203d1b"
     stroke-width="1.04573" />
  <path
     id="path_1173"
     d="m 206.82686,511.90241 c 8.10458,-14.52314 -14.14667,-43.99991 -18.9967,-18.8231 -4.34391,14.51365 5.61671,21.31131 18.9967,18.8231 z"
     fill="#203d1b"
     stroke-width="1.04573" />
  <path
     id="path_1178"
     d="m 248.65599,517.13106 c 3.67859,-23.67189 -27.24914,-48.53647 -35.5115,-15.61212 -7.8979,22.95796 23.23426,17.531 35.5115,15.61212 z m 43.92058,-1.04573 c 26.31456,9.48066 28.20409,-26.17347 7.33578,-31.63119 -11.74078,5.50339 -7.37511,21.53126 -7.33578,31.63119 z"
     fill="#203d1b"
     stroke-width="1.04573" />
  <path
     id="path_1171"
     d="m 289.06194,514.9566 c -0.003,-5.4357 -0.32417,-10.5148 -2.18557,-15.68592 -2.27355,-5.57715 -5.05334,-10.70988 -9.35927,-14.34844 -12.7035,-10.59427 -18.58573,9.5339 -21.57023,18.53135 -1.24024,3.74161 -4.54265,11.23635 -0.76339,14.49379 2.4491,2.11028 6.78678,2.15211 9.82671,2.22217 8.86255,0.20706 15.69011,-3.22711 24.05175,-5.21295 z"
     fill="#203d1b"
     stroke-width="1.04573"
     sodipodi:nodetypes="ccccccc" />
  <path
     id="path_12"
     d="m 183.92816,13.893844 c 1.51875,7.249444 3.91944,14.133584 4.87312,21.514676 l 2.07441,-0.266544 c -0.95263,-7.413913 -1.32917,-14.808016 -4.87313,-21.514677 z"
     fill="#100f0f"
     stroke-width="1.04573" />
  <path
     id="path_40"
     d="m 233.23143,20.944727 1.04573,16.731652 c 2.29433,-5.109428 2.62373,-11.389026 1.04573,-16.731652 z"
     fill="#100f0f"
     stroke-width="1.04573" />
</svg>
