<svg
    xmlns="http://www.w3.org/2000/svg"
    viewBox="0 0 600 600"
    id="vector">
    <path
        id="path"
        d="M 171.93 82.63 L 577.1 0 L 577.1 112.99 L 171.93 195.62 Z"
        fill="#eb3c27"
        stroke="#00000000"/>
    <path
        id="path_1"
        d="M 171.93 82.54 L 237.16 82.54 L 237.16 504.91 L 171.93 504.91 Z"
        fill="#eb3c27"
        stroke="#00000000"/>
    <path
        id="path_2"
        d="M 235.04 488.2 C 246.7 531.7 209.13 579.56 151.13 595.1 C 93.13 610.64 36.67 587.98 25.01 544.48 C 13.35 500.98 50.92 453.12 108.92 437.58 C 166.92 422.04 223.38 444.7 235.04 488.2 Z"
        fill="#eb3c27"
        stroke="#00000000"/>
    <path
        id="path_3"
        d="M 511.87 13.54 L 577.1 13.54 L 577.1 435.91 L 511.87 435.91 Z"
        fill="#eb3c27"
        stroke="#00000000"/>
    <path
        id="path_4"
        d="M 574.98 419.21 C 586.64 462.71 549.07 510.57 491.07 526.11 C 433.07 541.65 376.61 518.99 364.95 475.49 C 353.29 431.99 390.86 384.13 448.86 368.59 C 506.86 353.05 563.32 375.71 574.98 419.21 Z"
        fill="#eb3c27"
        stroke="#00000000"/>
</svg>
