<?xml version="1.0" encoding="UTF-8" standalone="no"?>
<svg
   viewBox="0 0 512 512"
   id="vector"
   version="1.1"
   sodipodi:docname="weed.svg"
   inkscape:version="1.2.2 (b0a84865, 2022-12-01)"
   xmlns:inkscape="http://www.inkscape.org/namespaces/inkscape"
   xmlns:sodipodi="http://sodipodi.sourceforge.net/DTD/sodipodi-0.dtd"
   xmlns="http://www.w3.org/2000/svg"
   xmlns:svg="http://www.w3.org/2000/svg">
  <defs
     id="defs2507" />
  <sodipodi:namedview
     id="namedview2505"
     pagecolor="#ffffff"
     bordercolor="#000000"
     borderopacity="0.25"
     inkscape:showpageshadow="2"
     inkscape:pageopacity="0.0"
     inkscape:pagecheckerboard="0"
     inkscape:deskcolor="#d1d1d1"
     showgrid="false"
     inkscape:zoom="2.0058594"
     inkscape:cx="409.30088"
     inkscape:cy="88.989289"
     inkscape:window-width="2229"
     inkscape:window-height="1205"
     inkscape:window-x="0"
     inkscape:window-y="25"
     inkscape:window-maximized="0"
     inkscape:current-layer="vector" />
  <path
     id="path"
     d="m 255.53906,30.660156 c -170.359373,-0.440104 -85.17969,-0.220052 0,0 z m 0.0215,-0.01953 c -0.16,1.299999 -0.69977,4.539927 -1.50977,8.919922 -1.56,8.539991 -4.27125,21.570403 -7.78125,33.900391 -0.86,3.079996 -1.94945,6.489535 -3.18945,10.269531 -0.002,0.006 -0.004,0.01353 -0.006,0.01953 l -0.0352,-0.0293 -2.1582,-1.890625 -1.51172,12.869141 c -0.94261,3.119242 -2.05516,6.243384 -2.88864,8.880854 -6.1e-4,0.002 -0.001,0.004 -0.002,0.006 l -0.0293,-0.0156 -7.34961,-3.73046 1.67969,21.51953 0.006,0.0664 c -1.34454,4.47312 -2.69062,9.10399 -4.03516,13.89453 l -0.0195,-0.01 -8.65039,-3.83985 2.69922,28.37891 0.008,0.0879 c -0.64421,2.94852 -1.23165,5.95493 -1.76758,9.01172 -2.3e-4,0.001 2.3e-4,0.003 0,0.004 l -0.0293,-0.0137 -11.25,-5.77929 7.18946,35.08984 0.0312,0.14844 c -0.37297,4.06414 -0.64392,8.23147 -0.86133,12.45117 -2.6e-4,0.006 2.5e-4,0.0131 0,0.0195 l -0.0293,-0.0195 -12.2207,-8.10938 13.18945,51.62891 c 0.29812,2.79815 0.54483,5.69218 0.79099,8.11133 5.3e-4,0.005 10e-4,0.009 0.002,0.0137 l -0.0312,-0.0137 -6.38086,-2.65039 -7.57031,-3.18946 15.88672,32.27149 -0.0254,0.0488 -1.5,2.83594 c -1.18736,-1.94523 -2.42385,-3.8809 -3.72071,-5.82618 -0.0284,-0.0433 -0.0595,-0.0876 -0.0879,-0.13086 l -18.04296,-39.05078 -2.91016,10.34766 c -2.20635,-2.64537 -4.47333,-5.29061 -6.68945,-7.82617 -0.0222,-0.0248 -0.0443,-0.0475 -0.0664,-0.0723 l -13.41406,-25.96875 -3.55664,8.40235 c -1.88713,-1.837 -3.72516,-3.55485 -5.5625,-5.23243 -4.20504,-6.52369 -8.37436,-13.10566 -12.55079,-19.66012 l -3.01954,6.08984 c -3.18999,-2.65 -6.31961,-5.13953 -9.34961,-7.51953 -0.0163,-0.0129 -0.0306,-0.0222 -0.0469,-0.0352 L 127.5,190.6095 l -2.26172,5.4414 c -2.15952,-1.61965 -4.2086,-3.19069 -6.1582,-4.65039 -0.032,-0.0237 -0.0579,-0.0427 -0.0898,-0.0664 l -7.16992,-7.70312 -0.31836,2.14258 c -2.53672,-1.9973 -4.86438,-3.77499 -6.91211,-5.45313 -12.319984,-10.05999 -24.380389,-21.9007 -26.650387,-24.2207 1.619999,2.81 9.730006,17.51119 16,31.95117 1.029999,2.38 2.110783,5.03 3.300781,8 0.0012,0.003 0.0027,0.007 0.0039,0.01 l -2.103516,-0.32032 5.398432,8.74219 c 0.86985,2.31954 1.84133,4.80825 2.8711,7.34766 0.002,0.006 0.005,0.0134 0.008,0.0195 l -6.058592,0.59961 11.679682,13.35156 c 1.39785,3.50357 2.96492,7.176 4.69141,10.89844 0.003,0.007 0.007,0.0145 0.01,0.0215 l -6.87109,1.0293 15.73047,17.57031 0.0234,0.0273 c 1.07326,2.2036 2.20506,4.34748 3.38672,6.60156 0.004,0.007 0.008,0.013 0.0117,0.0195 l -0.0117,0.002 -9.25,0.8086 21.67968,20.16992 0.0566,0.0527 c 1.76779,2.83499 3.70051,5.62302 5.6836,8.46875 0.005,0.007 0.0109,0.0127 0.0156,0.0195 h -0.0254 l -11.0293,-0.26953 33.19922,28.37891 0.125,0.10547 c 1.46522,1.62039 2.93947,3.25027 4.4043,4.82226 v 0.002 0.11132 l 0.006,0.0508 -7.67578,1.33984 -0.0586,-0.041 -30.2207,-20.91992 2.9707,8.33008 0.002,0.006 c -0.004,-0.002 -0.008,-0.004 -0.0117,-0.006 -3.02077,-1.29604 -6.04259,-2.53207 -9.00391,-3.71875 l -0.0176,-0.0117 -22.97852,-14.81054 1.50976,7.03124 c -2.26999,-0.74999 -4.48117,-1.46015 -6.701164,-2.16015 l -19.25,-10.54102 0.759766,5.24024 c -3.729997,-0.98 -7.299769,-1.88977 -10.759766,-2.75977 l -14.650391,-7.78906 0.970704,4.59961 c -2.379998,-0.6 -4.699924,-1.08031 -6.919922,-1.57031 -0.02381,-0.006 -0.04262,-0.01 -0.06641,-0.0156 l -9.173829,-3.48437 0.798829,1.54882 c -2.91477,-0.64905 -5.502385,-1.29953 -7.878907,-1.88867 -14.254672,-3.67604 -29.1404653,-8.68521 -32.03320288,-9.72265 -0.48643053858,-0.27795 -0.59488674,-0.33656 -0.25585937,-0.11719 -0.14624985,-0.045 -0.2204297,-0.0637 -0.22851562,-0.0625 0.02012379,0.0125 0.18058595,0.0719 0.45898437,0.17187 2.6499973,1.51 16.0084495,9.72954 27.8984375,18.26954 1.939998,1.40999 4.09969,3.02976 6.429687,4.75976 0.0024,0.002 0.0054,0.004 0.0078,0.006 l -0.02734,0.006 -1.779297,0.37891 8.59961,4.87109 0.138672,0.0781 c 1.741631,1.33309 3.536433,2.75534 5.441406,4.23047 0.0014,10e-4 0.0025,0.003 0.0039,0.004 l -0.01367,0.006 -4.220703,2.11133 15.349609,6.21875 0.08008,0.0332 c 2.793957,2.09645 5.80012,4.24223 8.859375,6.44727 l -0.01758,0.01 -4.601563,2.70117 20.710937,8.16016 0.05078,0.0195 c 1.879723,1.23272 3.759823,2.41608 5.699218,3.59961 l -0.01953,0.01 -6.601562,3.30078 c 12.863701,3.87007 23.451557,7.89089 34.791007,12.69921 h -0.0195 l -8.43164,2.91992 c 14.81247,4.47403 30.99139,8.29314 44.98832,13.19723 l -0.008,0.004 -7.18945,4.42969 c 11.35575,1.92416 22.79243,2.66956 32.44725,4.59568 l -2.26757,6.42383 7.57031,0.33008 h 0.0215 l 0.37891,0.32031 0.006,0.008 c -0.009,0.001 -0.0167,7e-4 -0.0254,0.002 -11.52885,1.08752 -24.24058,0.81125 -34.48044,0.95899 l 5.24023,3.35156 h 0.0488 l 0.01,0.006 c -0.006,0.001 -0.0131,0.003 -0.0195,0.004 h -0.0488 c -9.97161,1.37231 -18.92266,2.05027 -27.19146,2.42968 5.57854,4.21238 3.75638,3.19418 -0.98066,4.75982 -5.4187,0.5952 -10.84009,1.1867 -16.2599,1.77935 l 2.69922,2.64843 c -0.002,8.7e-4 -0.005,10e-4 -0.008,0.002 -6.40612,2.86886 -13.55325,3.44092 -19.890658,4.22073 l 2.53125,2.10352 c -3.889728,1.77794 -8.18915,2.70925 -12.001955,3.62691 l 1.183594,0.53516 c -2.042692,0.80682 -3.928699,1.50536 -5.603516,2.10351 -2.489997,0.87 -5.028987,1.73024 -7.458984,2.49024 -7.679993,2.42999 -14.49133,4.32976 -16.111328,4.75976 1.949998,-0.16 10.710556,-0.69859 20.060547,-0.80859 1.519998,-0.05 3.08961,-0.0508 4.599609,-0.0508 1.760294,0 3.742988,0.0578 5.933594,0.10742 l -0.923829,0.91211 7.605469,-0.74219 c 1.560051,0.10222 3.168119,0.1648 4.876953,0.21289 l -1.671875,2.84961 12.017579,-2.63477 c 0.0575,8.1e-4 0.10446,0.003 0.16211,0.004 2.52821,0.0498 5.21625,0.0508 7.96289,0.0508 l -1.66211,3.33008 c 6.88197,-1.96512 14.19618,-3.30097 21.05078,-3.92011 0.001,-7e-5 0.003,6e-5 0.004,0 l -2.61524,4.42969 c 13.31014,-3.97444 16.09911,-5.06671 26.49417,-6.70137 l -3.85351,4.94141 c 10.81035,-3.41819 22.14761,-7.94702 32.86914,-10.45508 l -2.45899,5.29492 19.83789,-9.82226 c 0.0204,-0.006 0.0421,-0.0118 0.0625,-0.0176 0.60403,-0.14086 1.22612,-0.33288 1.75193,-0.48242 l 1.33789,4.47265 c 9.45877,-7.18876 21.16864,-11.54474 31.32815,-15.82627 1.68553,28.19274 4.38819,58.01015 7.36133,83.35547 l 12.89062,-0.32031 c 0,0 -0.18976,-5.30962 -0.50976,-14.59961 -0.21,-4.65 -0.46024,-10.28001 -0.74024,-16.75 -0.08,-3.23 -0.17148,-6.66883 -0.27148,-10.29883 -0.14,-3.63 -0.28922,-7.43992 -0.44922,-11.41992 -0.15,-3.97 -0.29898,-8.12016 -0.45898,-12.41016 -0.09,-4.28999 -0.19102,-8.73102 -0.29102,-13.29101 -0.0838,-4.02264 -0.17966,-8.4517 -0.26953,-12.6543 0.003,-0.003 0.007,-0.003 0.01,-0.006 11.32032,-91.67016 22.47402,-231.57348 0.08,-339.539064 -0.27,-1.349999 -0.53976,-2.599845 -0.75976,-3.839844 -0.27,-1.449999 -0.53977,-2.810782 -0.75977,-4.050781 -0.16,-0.809999 -0.32164,-1.569532 -0.43164,-2.269531 -0.05,-0.54 -0.15953,-1.079766 -0.26953,-1.509766 -0.11,-0.379999 -0.16875,-0.71125 -0.21875,-1.03125 -0.22,-1.409998 -0.38023,-2.488672 -0.49023,-3.138672 z M 77.660156,155.71094 v 0.10937 c 0,0 0.05078,-0.001 0.05078,0.0488 l 0.21875,0.2207 c -0.01,-0.0138 -0.02013,-0.0262 -0.0293,-0.0391 -0.0092,-0.0129 -0.01687,-0.027 -0.02539,-0.0391 -0.100781,-0.14496 -0.150781,-0.22996 -0.195312,-0.2793 -0.0015,-0.002 -0.0024,-0.004 -0.0039,-0.006 -0.0018,-0.002 -0.004,-0.004 -0.0059,-0.006 -0.0016,-0.002 -0.0023,-0.004 -0.0039,-0.006 -0.0019,-0.002 -0.004,-0.002 -0.0059,-0.004 z m 5.464844,3.26367 c -2.93e-4,0.0111 0.03422,0.0901 0.105469,0.23633 -0.12,-0.1125 -0.184649,-0.16729 -0.195313,-0.16992 0.01041,0.0227 0.13875,0.16679 0.375,0.41992 -0.16875,-0.30375 -0.267292,-0.46992 -0.285156,-0.48633 z m -7.095703,2.55273 c -5.86e-4,0.0104 0.03633,0.0862 0.111328,0.23243 -0.32,-0.3 -0.240312,-0.18977 0.179687,0.24023 -0.187499,-0.325 -0.290039,-0.48994 -0.291015,-0.47266 z m -19.900391,230.00586 -0.002,0.002 c 0.0047,0.005 0.06133,0.0164 0.173828,0.0351 -0.103312,0.0107 -0.158398,0.0184 -0.167969,0.0215 0.01745,0.002 0.146329,-0.005 0.376954,-0.0215 -0.230625,-0.0281 -0.362425,-0.0406 -0.38086,-0.0371 z m 0.230469,27.75586 c -0.23625,0.0225 -0.368022,0.0406 -0.384766,0.0469 0.006,0.003 0.06328,0.002 0.175782,-0.006 -0.104568,0.0324 -0.156689,0.0519 -0.164063,0.0566 0.01914,-10e-4 0.148047,-0.0358 0.373047,-0.0977 z M 54.75,425.19922 c -0.23625,0.0169 -0.368022,0.029 -0.384766,0.0332 0.0096,0.002 0.06574,0.002 0.173828,-0.002 -0.104567,0.0324 -0.156688,0.0514 -0.164062,0.0566 0.01914,-2.9e-4 0.15,-0.0316 0.375,-0.0879 z"
     style="fill:#00bf00;fill-opacity:1"
     sodipodi:nodetypes="cccccccccccccccccccccsccccccccccccccccccccccccccccccccccccccccsccccccccccccccccccscccccccccccccccccccccccccccccccccccscccccscccccccccccccccccccccccccccccccccccccccccccccsccccccccccccccccccccccccccccccccccccccccccccccccccccccsccsccccccccccccccccccccc" />
  <path
     id="path_42"
     d="m 477.16608,296.26549 -0.05,0.05 1.78,0.32 -8.6,4.86 -0.05,0.05 c -1.73,1.35 -3.57,2.76 -5.51,4.27 l 4.22,2.11 -15.35,6.22 -0.05,0.05 c -2.87,2.11 -5.78,4.22 -8.87,6.43 l 4.6,2.7 -20.55,8.11 c -0.32,0.22 -0.65,0.43 -1.03,0.65 -1.57,1.03 -3.19,2 -4.81,3.03 l 6.54,3.3 -26.06,8.11 -0.05,0.05 h -0.05 c -0.05,0 -0.05,0.05 -0.11,0.05 -2.76,1.57 -5.62,2.97 -8.49,4.49 l 8.43,2.92 -39.09,10.87 c -0.05,0.05 -0.16,0.05 -0.22,0.05 -1.89,0.76 -3.79,1.57 -5.68,2.27 l 7.24,4.43 -30.01,3.78 h -0.05 c -0.87,0.27 -1.62,0.54 -2.43,0.81 l 0.97,2.65 16.76,-0.16 -5.19,3.51 c 2.38,0.43 4.7,0.87 7.08,1.35 h 0.11 l 20.11,0.38 -3.84,3.41 c 1.62,0.43 3.24,0.87 4.87,1.3 0.05,0.05 0.05,0.05 0.11,0.05 l 16.22,1.41 -2.6,2.65 c 1.35,0.43 2.65,0.87 3.95,1.3 1.24,0.43 2.49,0.81 3.73,1.24 h 0.16 l 12.16,1.19 -2.49,2.22 c 1.68,0.6 3.3,1.19 4.81,1.73 h 0.05 l 7.19,1.57 -1.13,0.59 c 2,0.7 3.95,1.35 5.62,1.95 10.33,3.3 21.57,6.16 23.73,6.7 -2.22,-0.16 -13.84,-0.6 -24.65,-0.32 -1.78,0.05 -3.78,0.16 -5.95,0.27 l 0.92,0.87 -7.14,-0.49 h -0.16 c -1.68,0.05 -3.41,0.16 -5.19,0.27 l 1.73,2.81 -12,-2.32 h -0.05 c -1.3,0.05 -2.65,0.11 -3.95,0.16 -1.4,0.05 -2.76,0.05 -4.16,0.11 l 1.73,3.3 -15.84,-3.24 -0.16,-0.05 h -0.22 c -1.62,0 -3.24,-0.05 -4.92,-0.11 l 2.7,4.38 -19.52,-5.35 c -0.97,-0.11 -2,-0.22 -3.03,-0.32 -1.35,-0.11 -2.76,-0.27 -4.11,-0.43 l 4,4.87 -28.6,-8.76 c -0.32,-0.05 -0.65,-0.11 -0.92,-0.22 -1.24,-0.22 -2.43,-0.49 -3.62,-0.7 l 2.6,5.3 -20.11,-9.35 c -0.05,0 -0.05,0 -0.11,-0.05 -0.54,-0.11 -1.13,-0.27 -1.68,-0.43 l -1.19,4.54 -17.95,-10.11 -0.05,-0.05 h -0.05 c -5.78,-1.89 -10.92,-3.73 -15.19,-5.46 0.05,2.7 0.11,5.51 0.16,8.16 0.11,4.54 0.22,8.98 0.27,13.3 0.16,4.27 0.32,8.43 0.49,12.38 0.16,4 0.32,7.79 0.43,11.46 0.11,3.62 0.22,7.03 0.27,10.27 0.27,6.49 0.54,12.11 0.76,16.76 0.32,9.3 0.49,14.6 0.49,14.6 l -5.35,0.11 V 33.345364 c 0.16,0.81 0.32,1.78 0.49,2.87 0.32,1.779992 0.7,3.949981 1.19,6.32998 0.22,1.24 0.49,2.49 0.76,3.84 1.62,7.84 3.78,17.57 6.43,26.98 0.49,1.73 1.03,3.57 1.68,5.51 0.27,0.97 0.6,2 0.97,3.03 0.16,0.54 0.32,1.08 0.54,1.68 l 2.11,-1.84 1.51,12.7 v 0.11 c 0.97,2.81 1.95,5.839996 2.97,8.919996 l 7.35,-3.73 -1.68,21.46 v 0.05 c 1.35,4.54 2.7,9.14015 4.05,13.95015 l 8.65,-3.84 -2.7,28.38 v 0.16 c 0.6,2.92 1.19,5.89 1.73,8.92 h 0.05 l 11.25,-5.78 -7.19,35.09 c 0.16,2.11 0.38,4.16 0.49,6.27 0.11,1.78 0.22,3.62 0.32,5.41 0,0.32 0.05,0.6 0.05,0.92 l 12.22,-8.11 -13.19,51.42 -0.05,0.16 v 0.22 c -0.22,2.7 -0.43,5.3 -0.7,7.95 l 13.95,-5.84 -15.52,31.36 v 0.05 l 2,3.73 c 1.19,-1.89 2.38,-3.78 3.62,-5.68 l 0.11,-0.16 18.11,-39.14 2.92,10.33 c 2.27,-2.7 4.49,-5.3 6.76,-7.84 l 0.05,-0.05 13.35,-26.01 3.57,8.49 c 1.84,-1.78 3.62,-3.46 5.46,-5.14 l 0.05,-0.05 12.6,-19.79 3.03,6.11 c 3.19,-2.65 6.27,-5.14 9.3,-7.52 l 9.79,-14.76 2.33,5.46 c 2.11,-1.62 4.16,-3.14 6.11,-4.65 l 7.24,-7.78 0.32,2.11 c 1.3,-0.97 2.49,-1.89 3.62,-2.81 1.19,-0.92 2.27,-1.78 3.3,-2.6 6.49,-5.3 12.98,-11.14 17.9,-15.79 4.43,-4.11 7.68,-7.35 8.76,-8.43 -0.81,1.35 -3.14,5.57 -6,11.19 -3.08,5.89 -6.76,13.35 -10,20.76 -1.03,2.38 -2.16,5.03 -3.3,8 v 0.05 l 2.16,-0.38 -5.41,8.81 -0.05,0.11 -0.11,0.11 c 0,0.05 -0.05,0.05 -0.05,0.11 -0.81,2.16 -1.68,4.43 -2.6,6.76 -0.05,0.05 -0.05,0.16 -0.11,0.22 h 0.05 l 6,0.6 -11.57,13.3 -0.11,0.11 c -1.35,3.24 -2.76,6.54 -4.22,9.95 -0.16,0.32 -0.32,0.59 -0.43,0.92 l 6.87,1.03 -15.68,17.46 v 0.05 l -0.11,0.11 c -1.13,2.16 -2.27,4.38 -3.46,6.54 h 0.05 l 9.24,0.87 -21.63,20.11 c 0,0 0,0.05 -0.05,0.05 -1.3,2.11 -2.7,4.16 -4.16,6.27 -0.49,0.76 -1.03,1.51 -1.57,2.27 h 0.05 l 11.03,-0.27 -33.25,28.33 -0.11,0.11 -0.05,0.05 c -0.7,0.81 -1.41,1.62 -2.16,2.38 -0.7,0.81 -1.4,1.57 -2.22,2.38 v 0.22 l 7.73,1.35 h 0.05 l 30.17,-20.92 -2.92,8.27 c 2.97,-1.3 6,-2.54 8.98,-3.73 l 22.98,-14.76 -1.51,7.03 c 2.22,-0.76 4.43,-1.46 6.6,-2.11 l 0.11,-0.05 19.25,-10.54 -0.76,5.24 c 3.73,-0.97 7.3,-1.89 10.76,-2.76 l 14.65,-7.79 -0.97,4.6 c 2.33,-0.54 4.65,-1.08 6.81,-1.57 0.05,0 0.05,0 0.11,0 l 0.11,-0.05 9.14,-3.46 -0.81,1.57 c 0.7,-0.16 1.41,-0.32 2.11,-0.49 0.7,-0.16 1.4,-0.32 2.05,-0.49 1.3,-0.32 2.6,-0.6 3.73,-0.92 14.27,-3.68 29.19,-8.7 32.06,-9.73 -2.6,1.51 -15.95,9.73 -27.84,18.27 -1.99,1.4 -4.1,3.02 -6.42,4.75 z"
     fill="#040000"
     fill-opacity="0.06"
     stroke-opacity="0.06"
     style="fill:#00a900;fill-opacity:1" />
</svg>
