<svg id="Layer_1" data-name="Layer 1" xmlns="http://www.w3.org/2000/svg" xmlns:xlink="http://www.w3.org/1999/xlink" viewBox="0 0 170.16 186.2"><defs><style>.cls-1{fill:url(#linear-gradient);}.cls-2{fill:url(#linear-gradient-2);}</style><linearGradient id="linear-gradient" x1="80.19" y1="57.17" x2="91.66" y2="57.17" gradientUnits="userSpaceOnUse"><stop offset="0" stop-color="#652d80"/><stop offset="1" stop-color="#2598cf"/></linearGradient><linearGradient id="linear-gradient-2" x1="335.87" y1="297.64" x2="506.02" y2="297.64" xlink:href="#linear-gradient"/></defs><title>Amethyst_svg_monogram</title><ellipse class="cls-1" cx="85.93" cy="57.17" rx="5.74" ry="5.64"/><path class="cls-2" d="M506,347.08c-.2-.61-46.85-111.69-59.68-142.5-15.62,0-48.61,0-71.88,0-6.83,16.89-24.46,59.94-38.6,94.62,7.75,18.49,14.71,35.1,20.08,47.91l29.27,0a2,2,0,0,0,1.87-2.35c-.25-5.91-16.34-27.39-11.54-50.63,1.28-5,2.26-10.08,3.66-15.06a175.77,175.77,0,0,1,13.44-34.8c.89-1.69,1.3-2.45,3.35-1.17,4.37,2.72,9.25,2.56,14.11,2.21,4.19-.91,6.23-2.92,13.91-.88,1.52,0,3,0,4.55.14,3.69.29,7.15,1.17,9.37,4.51,2.42,3.65,2.81,7.78,2.42,12-.59,6.31-.17,12.19,5.17,16.64a57.52,57.52,0,0,0,6,4c2.65,1.7,5.85,2.44,8.12,4.8,1.34,1.39,2.13,2.87,1.55,4.85s-2.13,2.91-4.17,3.13c-5.16.56-10.2-.49-15.27-1.1-.66-.08-1.31-.13-2-.17a11.47,11.47,0,0,1-3.81.13l-1.19,0a26.7,26.7,0,0,0-5.9,1.41c-4.78,1.74-9.13,3.66-14.77,3.56a4.32,4.32,0,0,0-2.05.89c-4.42,3.93-7.08,8.89-4.87,16.14,6.06,16.93,21.61,57.77,28.29,75.4-.19-11.94-.24-33.32-.28-43.7C461.83,347.1,502.74,347.08,506,347.08Z" transform="translate(-335.87 -204.54)"/></svg>